<svg xmlns="http://www.w3.org/2000/svg" viewBox="0 0 1024 768">
  <defs>
    <style>
      .cls-1 {
        font-size: 26px;
        font-family: Roboto-Bold, Roboto;
        font-weight: 700;
      }

      .cls-1, .cls-8, .cls-9 {
        fill: #fff;
      }

      .cls-2 {
        letter-spacing: -0.03em;
      }

      .cls-3 {
        letter-spacing: -0.02em;
      }

      .cls-4 {
        font-size: 18px;
        font-weight: 400;
      }

      .cls-12, .cls-4, .cls-5, .cls-6 {
        fill: #6b6b6b;
      }

      .cls-12, .cls-4 {
        font-family: Roboto-Regular, Roboto;
      }

      .cls-6, .cls-9 {
        font-size: 12px;
        font-family: MyriadPro-Regular, Myriad Pro;
        letter-spacing: 0em;
      }

      .cls-7 {
        letter-spacing: 0em;
      }

      .cls-10 {
        fill: #ff8327;
      }

      .cls-11 {
        fill: none;
        stroke: #ff8327;
        stroke-miterlimit: 10;
      }

      .cls-12 {
        font-size: 14px;
      }

      .cls-13 {
        letter-spacing: -0.01em;
      }

      .cls-14 {
        letter-spacing: -0.01em;
      }

      .cls-15 {
        letter-spacing: -0.01em;
      }

      .cls-16 {
        letter-spacing: -0.02em;
      }

      .cls-17 {
        letter-spacing: -0.01em;
      }
    </style>
  </defs>
  <title>Tripulacion_cantidad</title>
  <g id="Capa_2" data-name="Capa 2">
    <rect width="1024" height="768"/>
  </g>
  <g id="Capa_1" data-name="Capa 1">
    <text class="cls-1" transform="translate(284.94 71.38)"><tspan class="cls-2">T</tspan><tspan x="15.26" y="0">ripulantes de las Misiones </tspan><tspan class="cls-3" x="327.84" y="0">A</tspan><tspan x="344.73" y="0">polo</tspan><tspan class="cls-4"><tspan x="0" y="21.6">Qué paso con ellos</tspan></tspan></text>
    <g>
      <g>
        <path class="cls-5" d="M341.66,239.54l-52.45,15.52,2.46,7.69,50-14.13c0-3.54,0-6.77,0-9.08Z"/>
        <path class="cls-5" d="M292.21,251.63a21.49,21.49,0,0,1,1.65-33.56l-1.83-1.9a24.1,24.1,0,0,0-2.72,36.32Z"/>
        <path class="cls-5" d="M319.24,236.78a3.35,3.35,0,1,0-3.34-3.34A3.35,3.35,0,0,0,319.24,236.78Z"/>
        <path class="cls-5" d="M341.66,237v-1a30.56,30.56,0,0,0-49.8-23.58l0,0,19.06,19.8v13.87Zm-22.42-8.73a5.17,5.17,0,0,1,2.8.83l3.41-3.42,1.3,1.29-3.38,3.38a5.11,5.11,0,0,1,1,3.09,5.17,5.17,0,1,1-5.17-5.17Z"/>
        <path class="cls-5" d="M322.94,260.51c7.68,0,14.71,4.53,18.74,11.81h0s0-11.2,0-21.17l-49.31,13.94c-1.71,2.58-3,5.19-4.6,7.23H304.2c4.11-7.4,11.11-11.81,18.74-11.81Z"/>
        <path class="cls-5" d="M322.94,263c-6.28,0-12.1,3.45-15.82,9.3h31.65C335.1,266.55,329.26,263,322.94,263Z"/>
      </g>
      <text class="cls-6" transform="translate(285.63 288.4)">A<tspan class="cls-7" x="7.31" y="0">polo 1</tspan></text>
      <g>
        <path d="M351.69,242c1,0-7-23-7-23l-5,6.79-2,9.21,1,9,5,7,9-3Z"/>
        <path class="cls-5" d="M395.66,239.54l-52.45,15.52,2.46,7.69,50-14.13c0-3.54,0-6.77,0-9.08Z"/>
        <path class="cls-5" d="M346.21,251.63a21.49,21.49,0,0,1,1.65-33.56l-1.83-1.9a24.1,24.1,0,0,0-2.72,36.32Z"/>
        <path class="cls-5" d="M373.24,236.78a3.35,3.35,0,1,0-3.34-3.34A3.35,3.35,0,0,0,373.24,236.78Z"/>
        <path class="cls-5" d="M395.66,237v-1a30.56,30.56,0,0,0-49.8-23.58l0,0,19.06,19.8v13.87Zm-22.42-8.73a5.17,5.17,0,0,1,2.8.83l3.41-3.42,1.3,1.29-3.38,3.38a5.11,5.11,0,0,1,1,3.09,5.17,5.17,0,1,1-5.17-5.17Z"/>
        <path class="cls-5" d="M376.94,260.51c7.68,0,14.71,4.53,18.74,11.81h0s0-11.2,0-21.17l-49.31,13.94c-1.71,2.58-3,5.19-4.6,7.23H358.2c4.11-7.4,11.11-11.81,18.74-11.81Z"/>
        <path class="cls-5" d="M376.94,263c-6.28,0-12.1,3.45-15.82,9.3h31.65C389.1,266.55,383.26,263,376.94,263Z"/>
      </g>
      <g>
        <path d="M405.69,242c1,0-7-23-7-23l-5,6.79-2,9.21,1,9,5,7,9-3Z"/>
        <g>
          <path class="cls-5" d="M449.66,239.54l-52.45,15.52,2.46,7.69,50-14.13c0-3.54,0-6.77,0-9.08Z"/>
          <path class="cls-5" d="M400.21,251.63a21.49,21.49,0,0,1,1.65-33.56l-1.83-1.9a24.1,24.1,0,0,0-2.72,36.32Z"/>
          <path class="cls-5" d="M427.24,236.78a3.35,3.35,0,1,0-3.34-3.34A3.35,3.35,0,0,0,427.24,236.78Z"/>
          <path class="cls-5" d="M449.66,237v-1a30.56,30.56,0,0,0-49.8-23.58l0,0,19.06,19.8v13.87Zm-22.42-8.73a5.17,5.17,0,0,1,2.8.83l3.41-3.42,1.3,1.29-3.38,3.38a5.11,5.11,0,0,1,1,3.09,5.17,5.17,0,1,1-5.17-5.17Z"/>
          <path class="cls-5" d="M430.94,260.51c7.68,0,14.71,4.53,18.74,11.81h0s0-11.2,0-21.17l-49.31,13.94c-1.71,2.58-3,5.19-4.6,7.23H412.2c4.11-7.4,11.11-11.81,18.74-11.81Z"/>
          <path class="cls-5" d="M430.94,263c-6.28,0-12.1,3.45-15.82,9.3h31.65C443.1,266.55,437.26,263,430.94,263Z"/>
        </g>
      </g>
    </g>
    <g>
      <g>
        <path class="cls-8" d="M308.44,370.22l-8.77-9.11a11.09,11.09,0,0,0-2.81,5c-.25,1.08-.53,3.9-.53,3.9l-3.41,6.81a1,1,0,0,0-.08.41,1,1,0,0,0,1,1h2.45v3.62c0,2.76,1.09,4.14,2.69,4.74l9.42-2.79V370.22Zm-8,2.22a1.53,1.53,0,1,1,1.52-1.52A1.53,1.53,0,0,1,300.45,372.44Z"/>
        <path class="cls-8" d="M341.66,376.54l-52.45,15.52,2.46,7.69,50-14.13c0-3.54,0-6.77,0-9.08Z"/>
        <path class="cls-8" d="M292.21,388.63a21.49,21.49,0,0,1,1.65-33.56l-1.83-1.9a24.1,24.1,0,0,0-2.72,36.32Z"/>
        <path class="cls-8" d="M319.24,373.78a3.35,3.35,0,1,0-3.34-3.34A3.35,3.35,0,0,0,319.24,373.78Z"/>
        <path class="cls-8" d="M341.66,374v-1a30.56,30.56,0,0,0-49.8-23.58l0,0,19.06,19.8v13.87Zm-22.42-8.73a5.17,5.17,0,0,1,2.8.83l3.41-3.42,1.3,1.29-3.38,3.38a5.11,5.11,0,0,1,1,3.09,5.17,5.17,0,1,1-5.17-5.17Z"/>
        <path class="cls-8" d="M322.94,397.51c7.68,0,14.71,4.53,18.74,11.81h0s0-11.2,0-21.17l-49.31,13.94c-1.71,2.58-3,5.19-4.6,7.23H304.2c4.11-7.4,11.11-11.81,18.74-11.81Z"/>
        <path class="cls-8" d="M322.94,400c-6.28,0-12.1,3.45-15.82,9.3h31.65C335.1,403.55,329.26,400,322.94,400Z"/>
      </g>
      <text class="cls-9" transform="translate(285.63 425.4)">A<tspan class="cls-7" x="7.31" y="0">polo 9</tspan></text>
      <g>
        <path d="M351.69,378c1,0-7-23-7-23l-5,6.79-2,9.21,1,9,5,7,9-3Z"/>
        <g>
          <path class="cls-10" d="M362.44,370.22l-8.77-9.11a11.09,11.09,0,0,0-2.81,5c-.25,1.08-.53,3.9-.53,3.9l-3.41,6.81a1,1,0,0,0-.08.41,1,1,0,0,0,1,1h2.45v3.62c0,2.76,1.09,4.14,2.69,4.74l9.42-2.79V370.22Zm-8,2.22a1.53,1.53,0,1,1,1.52-1.52A1.53,1.53,0,0,1,354.45,372.44Z"/>
          <path class="cls-10" d="M395.66,376.54l-52.45,15.52,2.46,7.69,50-14.13c0-3.54,0-6.77,0-9.08Z"/>
          <path class="cls-10" d="M346.21,388.63a21.49,21.49,0,0,1,1.65-33.56l-1.83-1.9a24.1,24.1,0,0,0-2.72,36.32Z"/>
          <path class="cls-10" d="M373.24,373.78a3.35,3.35,0,1,0-3.34-3.34A3.35,3.35,0,0,0,373.24,373.78Z"/>
          <path class="cls-10" d="M395.66,374v-1a30.56,30.56,0,0,0-49.8-23.58l0,0,19.06,19.8v13.87Zm-22.42-8.73a5.17,5.17,0,0,1,2.8.83l3.41-3.42,1.3,1.29-3.38,3.38a5.11,5.11,0,0,1,1,3.09,5.17,5.17,0,1,1-5.17-5.17Z"/>
          <path class="cls-10" d="M376.94,397.51c7.68,0,14.71,4.53,18.74,11.81h0s0-11.2,0-21.17l-49.31,13.94c-1.71,2.58-3,5.19-4.6,7.23H358.2c4.11-7.4,11.11-11.81,18.74-11.81Z"/>
          <path class="cls-10" d="M376.94,400c-6.28,0-12.1,3.45-15.82,9.3h31.65C389.1,403.55,383.26,400,376.94,400Z"/>
        </g>
      </g>
      <g>
        <path d="M405.69,378c1,0-7-23-7-23l-5,6.79-2,9.21,1,9,5,7,9-3Z"/>
        <g>
          <path class="cls-8" d="M416.44,370.22l-8.77-9.11a11.09,11.09,0,0,0-2.81,5c-.25,1.08-.53,3.9-.53,3.9l-3.41,6.81a1,1,0,0,0-.08.41,1,1,0,0,0,1,1h2.45v3.62c0,2.76,1.09,4.14,2.69,4.74l9.42-2.79V370.22Zm-8,2.22a1.53,1.53,0,1,1,1.52-1.52A1.53,1.53,0,0,1,408.45,372.44Z"/>
          <path class="cls-8" d="M449.66,376.54l-52.45,15.52,2.46,7.69,50-14.13c0-3.54,0-6.77,0-9.08Z"/>
          <path class="cls-8" d="M400.21,388.63a21.49,21.49,0,0,1,1.65-33.56l-1.83-1.9a24.1,24.1,0,0,0-2.72,36.32Z"/>
          <path class="cls-8" d="M427.24,373.78a3.35,3.35,0,1,0-3.34-3.34A3.35,3.35,0,0,0,427.24,373.78Z"/>
          <path class="cls-8" d="M449.66,374v-1a30.56,30.56,0,0,0-49.8-23.58l0,0,19.06,19.8v13.87Zm-22.42-8.73a5.17,5.17,0,0,1,2.8.83l3.41-3.42,1.3,1.29-3.38,3.38a5.11,5.11,0,0,1,1,3.09,5.17,5.17,0,1,1-5.17-5.17Z"/>
          <path class="cls-8" d="M430.94,397.51c7.68,0,14.71,4.53,18.74,11.81h0s0-11.2,0-21.17l-49.31,13.94c-1.71,2.58-3,5.19-4.6,7.23H412.2c4.11-7.4,11.11-11.81,18.74-11.81Z"/>
          <path class="cls-8" d="M430.94,400c-6.28,0-12.1,3.45-15.82,9.3h31.65C443.1,403.55,437.26,400,430.94,400Z"/>
        </g>
      </g>
    </g>
    <g>
      <g>
        <path class="cls-8" d="M308.44,507.22l-8.77-9.11a11.09,11.09,0,0,0-2.81,5c-.25,1.08-.53,3.9-.53,3.9l-3.41,6.81a1,1,0,0,0-.08.41,1,1,0,0,0,1,1h2.45v3.62c0,2.76,1.09,4.14,2.69,4.74l9.42-2.79V507.22Zm-8,2.22a1.53,1.53,0,1,1,1.52-1.52A1.53,1.53,0,0,1,300.45,509.44Z"/>
        <path class="cls-8" d="M341.66,513.54l-52.45,15.52,2.46,7.69,50-14.13c0-3.54,0-6.77,0-9.08Z"/>
        <path class="cls-8" d="M292.21,525.63a21.49,21.49,0,0,1,1.65-33.56l-1.83-1.9a24.1,24.1,0,0,0-2.72,36.32Z"/>
        <path class="cls-8" d="M319.24,510.78a3.35,3.35,0,1,0-3.34-3.34A3.35,3.35,0,0,0,319.24,510.78Z"/>
        <path class="cls-8" d="M341.66,511v-1a30.56,30.56,0,0,0-49.8-23.58l0,0,19.06,19.8v13.87Zm-22.42-8.73a5.17,5.17,0,0,1,2.8.83l3.41-3.42,1.3,1.29-3.38,3.38a5.11,5.11,0,0,1,1,3.09,5.17,5.17,0,1,1-5.17-5.17Z"/>
        <path class="cls-8" d="M322.94,534.51c7.68,0,14.71,4.53,18.74,11.81h0s0-11.2,0-21.17l-49.31,13.94c-1.71,2.58-3,5.19-4.6,7.23H304.2c4.11-7.4,11.11-11.81,18.74-11.81Z"/>
        <path class="cls-8" d="M322.94,537c-6.28,0-12.1,3.45-15.82,9.3h31.65C335.1,540.55,329.26,537,322.94,537Z"/>
      </g>
      <text class="cls-9" transform="translate(285.63 562.4)">A<tspan class="cls-7" x="7.31" y="0">polo 12</tspan></text>
      <g>
        <path d="M351.69,516c1,0-7-23-7-23l-5,6.79-2,9.21,1,9,5,7,9-3Z"/>
        <g>
          <path class="cls-8" d="M362.44,507.22l-8.77-9.11a11.09,11.09,0,0,0-2.81,5c-.25,1.08-.53,3.9-.53,3.9l-3.41,6.81a1,1,0,0,0-.08.41,1,1,0,0,0,1,1h2.45v3.62c0,2.76,1.09,4.14,2.69,4.74l9.42-2.79V507.22Zm-8,2.22a1.53,1.53,0,1,1,1.52-1.52A1.53,1.53,0,0,1,354.45,509.44Z"/>
          <path class="cls-8" d="M395.66,513.54l-52.45,15.52,2.46,7.69,50-14.13c0-3.54,0-6.77,0-9.08Z"/>
          <path class="cls-8" d="M346.21,525.63a21.49,21.49,0,0,1,1.65-33.56l-1.83-1.9a24.1,24.1,0,0,0-2.72,36.32Z"/>
          <path class="cls-8" d="M373.24,510.78a3.35,3.35,0,1,0-3.34-3.34A3.35,3.35,0,0,0,373.24,510.78Z"/>
          <path class="cls-8" d="M395.66,511v-1a30.56,30.56,0,0,0-49.8-23.58l0,0,19.06,19.8v13.87Zm-22.42-8.73a5.17,5.17,0,0,1,2.8.83l3.41-3.42,1.3,1.29-3.38,3.38a5.11,5.11,0,0,1,1,3.09,5.17,5.17,0,1,1-5.17-5.17Z"/>
          <path class="cls-8" d="M376.94,534.51c7.68,0,14.71,4.53,18.74,11.81h0s0-11.2,0-21.17l-49.31,13.94c-1.71,2.58-3,5.19-4.6,7.23H358.2c4.11-7.4,11.11-11.81,18.74-11.81Z"/>
          <path class="cls-8" d="M376.94,537c-6.28,0-12.1,3.45-15.82,9.3h31.65C389.1,540.55,383.26,537,376.94,537Z"/>
        </g>
      </g>
      <g>
        <path d="M405.69,516c1,0-7-23-7-23l-5,6.79-2,9.21,1,9,5,7,9-3Z"/>
        <g>
          <path class="cls-8" d="M416.44,507.22l-8.77-9.11a11.09,11.09,0,0,0-2.81,5c-.25,1.08-.53,3.9-.53,3.9l-3.41,6.81a1,1,0,0,0-.08.41,1,1,0,0,0,1,1h2.45v3.62c0,2.76,1.09,4.14,2.69,4.74l9.42-2.79V507.22Zm-8,2.22a1.53,1.53,0,1,1,1.52-1.52A1.53,1.53,0,0,1,408.45,509.44Z"/>
          <path class="cls-8" d="M449.66,513.54l-52.45,15.52,2.46,7.69,50-14.13c0-3.54,0-6.77,0-9.08Z"/>
          <path class="cls-8" d="M400.21,525.63a21.49,21.49,0,0,1,1.65-33.56l-1.83-1.9a24.1,24.1,0,0,0-2.72,36.32Z"/>
          <path class="cls-8" d="M427.24,510.78a3.35,3.35,0,1,0-3.34-3.34A3.35,3.35,0,0,0,427.24,510.78Z"/>
          <path class="cls-8" d="M449.66,511v-1a30.56,30.56,0,0,0-49.8-23.58l0,0,19.06,19.8v13.87Zm-22.42-8.73a5.17,5.17,0,0,1,2.8.83l3.41-3.42,1.3,1.29-3.38,3.38a5.11,5.11,0,0,1,1,3.09,5.17,5.17,0,1,1-5.17-5.17Z"/>
          <path class="cls-8" d="M430.94,534.51c7.68,0,14.71,4.53,18.74,11.81h0s0-11.2,0-21.17l-49.31,13.94c-1.71,2.58-3,5.19-4.6,7.23H412.2c4.11-7.4,11.11-11.81,18.74-11.81Z"/>
          <path class="cls-8" d="M430.94,537c-6.28,0-12.1,3.45-15.82,9.3h31.65C443.1,540.55,437.26,537,430.94,537Z"/>
        </g>
      </g>
    </g>
    <g>
      <g>
        <path class="cls-11" d="M308.44,644.22l-8.77-9.11a11.09,11.09,0,0,0-2.81,5c-.25,1.08-.53,3.9-.53,3.9l-3.41,6.81a1,1,0,0,0-.08.41,1,1,0,0,0,1,1h2.45v3.62c0,2.76,1.09,4.14,2.69,4.74l9.42-2.79V644.22Zm-8,2.22a1.53,1.53,0,1,1,1.52-1.52A1.53,1.53,0,0,1,300.45,646.44Z"/>
        <path class="cls-11" d="M341.66,650.54l-52.45,15.52,2.46,7.69,50-14.13c0-3.54,0-6.77,0-9.08Z"/>
        <path class="cls-11" d="M292.21,662.63a21.49,21.49,0,0,1,1.65-33.56l-1.83-1.9a24.1,24.1,0,0,0-2.72,36.32Z"/>
        <path class="cls-11" d="M319.24,647.78a3.35,3.35,0,1,0-3.34-3.34A3.35,3.35,0,0,0,319.24,647.78Z"/>
        <path class="cls-11" d="M341.66,648v-1a30.56,30.56,0,0,0-49.8-23.58l0,0,19.06,19.8v13.87Zm-22.42-8.73a5.17,5.17,0,0,1,2.8.83l3.41-3.42,1.3,1.29-3.38,3.38a5.11,5.11,0,0,1,1,3.09,5.17,5.17,0,1,1-5.17-5.17Z"/>
        <path class="cls-11" d="M322.94,671.51c7.68,0,14.71,4.53,18.74,11.81h0s0-11.2,0-21.17l-49.31,13.94c-1.71,2.58-3,5.19-4.6,7.23H304.2c4.11-7.4,11.11-11.81,18.74-11.81Z"/>
        <path class="cls-11" d="M322.94,674c-6.28,0-12.1,3.45-15.82,9.3h31.65C335.1,677.55,329.26,674,322.94,674Z"/>
      </g>
      <text class="cls-9" transform="translate(285.63 699.4)">A<tspan class="cls-7" x="7.31" y="0">polo 15</tspan></text>
      <g>
        <path d="M351.69,652c1,0-7-23-7-23l-5,6.79-2,9.21,1,9,5,7,9-3Z"/>
        <g>
          <path class="cls-8" d="M362.44,644.22l-8.77-9.11a11.09,11.09,0,0,0-2.81,5c-.25,1.08-.53,3.9-.53,3.9l-3.41,6.81a1,1,0,0,0-.08.41,1,1,0,0,0,1,1h2.45v3.62c0,2.76,1.09,4.14,2.69,4.74l9.42-2.79V644.22Zm-8,2.22a1.53,1.53,0,1,1,1.52-1.52A1.53,1.53,0,0,1,354.45,646.44Z"/>
          <path class="cls-8" d="M395.66,650.54l-52.45,15.52,2.46,7.69,50-14.13c0-3.54,0-6.77,0-9.08Z"/>
          <path class="cls-8" d="M346.21,662.63a21.49,21.49,0,0,1,1.65-33.56l-1.83-1.9a24.1,24.1,0,0,0-2.72,36.32Z"/>
          <path class="cls-8" d="M373.24,647.78a3.35,3.35,0,1,0-3.34-3.34A3.35,3.35,0,0,0,373.24,647.78Z"/>
          <path class="cls-8" d="M395.66,648v-1a30.56,30.56,0,0,0-49.8-23.58l0,0,19.06,19.8v13.87Zm-22.42-8.73a5.17,5.17,0,0,1,2.8.83l3.41-3.42,1.3,1.29-3.38,3.38a5.11,5.11,0,0,1,1,3.09,5.17,5.17,0,1,1-5.17-5.17Z"/>
          <path class="cls-8" d="M376.94,671.51c7.68,0,14.71,4.53,18.74,11.81h0s0-11.2,0-21.17l-49.31,13.94c-1.71,2.58-3,5.19-4.6,7.23H358.2c4.11-7.4,11.11-11.81,18.74-11.81Z"/>
          <path class="cls-8" d="M376.94,674c-6.28,0-12.1,3.45-15.82,9.3h31.65C389.1,677.55,383.26,674,376.94,674Z"/>
        </g>
      </g>
      <g>
        <path d="M405.69,652c1,0-7-23-7-23l-5,6.79-2,9.21,1,9,5,7,9-3Z"/>
        <g>
          <path class="cls-8" d="M416.44,644.22l-8.77-9.11a11.09,11.09,0,0,0-2.81,5c-.25,1.08-.53,3.9-.53,3.9l-3.41,6.81a1,1,0,0,0-.08.41,1,1,0,0,0,1,1h2.45v3.62c0,2.76,1.09,4.14,2.69,4.74l9.42-2.79V644.22Zm-8,2.22a1.53,1.53,0,1,1,1.52-1.52A1.53,1.53,0,0,1,408.45,646.44Z"/>
          <path class="cls-8" d="M449.66,650.54l-52.45,15.52,2.46,7.69,50-14.13c0-3.54,0-6.77,0-9.08Z"/>
          <path class="cls-8" d="M400.21,662.63a21.49,21.49,0,0,1,1.65-33.56l-1.83-1.9a24.1,24.1,0,0,0-2.72,36.32Z"/>
          <path class="cls-8" d="M427.24,647.78a3.35,3.35,0,1,0-3.34-3.34A3.35,3.35,0,0,0,427.24,647.78Z"/>
          <path class="cls-8" d="M449.66,648v-1a30.56,30.56,0,0,0-49.8-23.58l0,0,19.06,19.8v13.87Zm-22.42-8.73a5.17,5.17,0,0,1,2.8.83l3.41-3.42,1.3,1.29-3.38,3.38a5.11,5.11,0,0,1,1,3.09,5.17,5.17,0,1,1-5.17-5.17Z"/>
          <path class="cls-8" d="M430.94,671.51c7.68,0,14.71,4.53,18.74,11.81h0s0-11.2,0-21.17l-49.31,13.94c-1.71,2.58-3,5.19-4.6,7.23H412.2c4.11-7.4,11.11-11.81,18.74-11.81Z"/>
          <path class="cls-8" d="M430.94,674c-6.28,0-12.1,3.45-15.82,9.3h31.65C443.1,677.55,437.26,674,430.94,674Z"/>
        </g>
      </g>
    </g>
    <g>
      <g>
        <path class="cls-8" d="M518.44,233.22l-8.77-9.11a11.09,11.09,0,0,0-2.81,5c-.25,1.08-.53,3.9-.53,3.9l-3.41,6.81a1,1,0,0,0-.08.41,1,1,0,0,0,1,1h2.45v3.62c0,2.76,1.09,4.14,2.69,4.74l9.42-2.79V233.22Zm-8,2.22a1.53,1.53,0,1,1,1.52-1.52A1.53,1.53,0,0,1,510.45,235.44Z"/>
        <path class="cls-8" d="M551.66,239.54l-52.45,15.52,2.46,7.69,50-14.13c0-3.54,0-6.77,0-9.08Z"/>
        <path class="cls-8" d="M502.21,251.63a21.49,21.49,0,0,1,1.65-33.56l-1.83-1.9a24.1,24.1,0,0,0-2.72,36.32Z"/>
        <path class="cls-8" d="M529.24,236.78a3.35,3.35,0,1,0-3.34-3.34A3.35,3.35,0,0,0,529.24,236.78Z"/>
        <path class="cls-8" d="M551.66,237v-1a30.56,30.56,0,0,0-49.8-23.58l0,0,19.06,19.8v13.87Zm-22.42-8.73a5.17,5.17,0,0,1,2.8.83l3.41-3.42,1.3,1.29-3.38,3.38a5.11,5.11,0,0,1,1,3.09,5.17,5.17,0,1,1-5.17-5.17Z"/>
        <path class="cls-8" d="M532.94,260.51c7.68,0,14.71,4.53,18.74,11.81h0s0-11.2,0-21.17l-49.31,13.94c-1.71,2.58-3,5.19-4.6,7.23H514.2c4.11-7.4,11.11-11.81,18.74-11.81Z"/>
        <path class="cls-8" d="M532.94,263c-6.28,0-12.1,3.45-15.82,9.3h31.65C545.1,266.55,539.26,263,532.94,263Z"/>
      </g>
      <text class="cls-9" transform="translate(496.63 288.4)">A<tspan class="cls-7" x="7.31" y="0">polo 7</tspan></text>
      <g>
        <path d="M561.69,242c1,0-7-23-7-23l-5,6.79-2,9.21,1,9,5,7,9-3Z"/>
        <g>
          <path class="cls-8" d="M572.44,233.22l-8.77-9.11a11.09,11.09,0,0,0-2.81,5c-.25,1.08-.53,3.9-.53,3.9l-3.41,6.81a1,1,0,0,0-.08.41,1,1,0,0,0,1,1h2.45v3.62c0,2.76,1.09,4.14,2.69,4.74l9.42-2.79V233.22Zm-8,2.22a1.53,1.53,0,1,1,1.52-1.52A1.53,1.53,0,0,1,564.45,235.44Z"/>
          <path class="cls-8" d="M605.66,239.54l-52.45,15.52,2.46,7.69,50-14.13c0-3.54,0-6.77,0-9.08Z"/>
          <path class="cls-8" d="M556.21,251.63a21.49,21.49,0,0,1,1.65-33.56l-1.83-1.9a24.1,24.1,0,0,0-2.72,36.32Z"/>
          <path class="cls-8" d="M583.24,236.78a3.35,3.35,0,1,0-3.34-3.34A3.35,3.35,0,0,0,583.24,236.78Z"/>
          <path class="cls-8" d="M605.66,237v-1a30.56,30.56,0,0,0-49.8-23.58l0,0,19.06,19.8v13.87Zm-22.42-8.73a5.17,5.17,0,0,1,2.8.83l3.41-3.42,1.3,1.29-3.38,3.38a5.11,5.11,0,0,1,1,3.09,5.17,5.17,0,1,1-5.17-5.17Z"/>
          <path class="cls-8" d="M586.94,260.51c7.68,0,14.71,4.53,18.74,11.81h0s0-11.2,0-21.17l-49.31,13.94c-1.71,2.58-3,5.19-4.6,7.23H568.2c4.11-7.4,11.11-11.81,18.74-11.81Z"/>
          <path class="cls-8" d="M586.94,263c-6.28,0-12.1,3.45-15.82,9.3h31.65C599.1,266.55,593.26,263,586.94,263Z"/>
        </g>
      </g>
      <g>
        <path d="M615.69,242c1,0-7-23-7-23l-5,6.79-2,9.21,1,9,5,7,9-3Z"/>
        <g>
          <path class="cls-8" d="M626.44,233.22l-8.77-9.11a11.09,11.09,0,0,0-2.81,5c-.25,1.08-.53,3.9-.53,3.9l-3.41,6.81a1,1,0,0,0-.08.41,1,1,0,0,0,1,1h2.45v3.62c0,2.76,1.09,4.14,2.69,4.74l9.42-2.79V233.22Zm-8,2.22a1.53,1.53,0,1,1,1.52-1.52A1.53,1.53,0,0,1,618.45,235.44Z"/>
          <path class="cls-8" d="M659.66,239.54l-52.45,15.52,2.46,7.69,50-14.13c0-3.54,0-6.77,0-9.08Z"/>
          <path class="cls-8" d="M610.21,251.63a21.49,21.49,0,0,1,1.65-33.56l-1.83-1.9a24.1,24.1,0,0,0-2.72,36.32Z"/>
          <path class="cls-8" d="M637.24,236.78a3.35,3.35,0,1,0-3.34-3.34A3.35,3.35,0,0,0,637.24,236.78Z"/>
          <path class="cls-8" d="M659.66,237v-1a30.56,30.56,0,0,0-49.8-23.58l0,0,19.06,19.8v13.87Zm-22.42-8.73a5.17,5.17,0,0,1,2.8.83l3.41-3.42,1.3,1.29-3.38,3.38a5.11,5.11,0,0,1,1,3.09,5.17,5.17,0,1,1-5.17-5.17Z"/>
          <path class="cls-8" d="M640.94,260.51c7.68,0,14.71,4.53,18.74,11.81h0s0-11.2,0-21.17l-49.31,13.94c-1.71,2.58-3,5.19-4.6,7.23H622.2c4.11-7.4,11.11-11.81,18.74-11.81Z"/>
          <path class="cls-8" d="M640.94,263c-6.28,0-12.1,3.45-15.82,9.3h31.65C653.1,266.55,647.26,263,640.94,263Z"/>
        </g>
      </g>
    </g>
    <g>
      <g>
        <path class="cls-8" d="M518.44,370.22l-8.77-9.11a11.09,11.09,0,0,0-2.81,5c-.25,1.08-.53,3.9-.53,3.9l-3.41,6.81a1,1,0,0,0-.08.41,1,1,0,0,0,1,1h2.45v3.62c0,2.76,1.09,4.14,2.69,4.74l9.42-2.79V370.22Zm-8,2.22a1.53,1.53,0,1,1,1.52-1.52A1.53,1.53,0,0,1,510.45,372.44Z"/>
        <path class="cls-8" d="M551.66,376.54l-52.45,15.52,2.46,7.69,50-14.13c0-3.54,0-6.77,0-9.08Z"/>
        <path class="cls-8" d="M502.21,388.63a21.49,21.49,0,0,1,1.65-33.56l-1.83-1.9a24.1,24.1,0,0,0-2.72,36.32Z"/>
        <path class="cls-8" d="M529.24,373.78a3.35,3.35,0,1,0-3.34-3.34A3.35,3.35,0,0,0,529.24,373.78Z"/>
        <path class="cls-8" d="M551.66,374v-1a30.56,30.56,0,0,0-49.8-23.58l0,0,19.06,19.8v13.87Zm-22.42-8.73a5.17,5.17,0,0,1,2.8.83l3.41-3.42,1.3,1.29-3.38,3.38a5.11,5.11,0,0,1,1,3.09,5.17,5.17,0,1,1-5.17-5.17Z"/>
        <path class="cls-8" d="M532.94,397.51c7.68,0,14.71,4.53,18.74,11.81h0s0-11.2,0-21.17l-49.31,13.94c-1.71,2.58-3,5.19-4.6,7.23H514.2c4.11-7.4,11.11-11.81,18.74-11.81Z"/>
        <path class="cls-8" d="M532.94,400c-6.28,0-12.1,3.45-15.82,9.3h31.65C545.1,403.55,539.26,400,532.94,400Z"/>
      </g>
      <text class="cls-9" transform="translate(496.63 425.4)">A<tspan class="cls-7" x="7.31" y="0">polo 10</tspan></text>
      <g>
        <path d="M561.69,378c1,0-7-23-7-23l-5,6.79-2,9.21,1,9,5,7,9-3Z"/>
        <g>
          <path class="cls-10" d="M572.44,370.22l-8.77-9.11a11.09,11.09,0,0,0-2.81,5c-.25,1.08-.53,3.9-.53,3.9l-3.41,6.81a1,1,0,0,0-.08.41,1,1,0,0,0,1,1h2.45v3.62c0,2.76,1.09,4.14,2.69,4.74l9.42-2.79V370.22Zm-8,2.22a1.53,1.53,0,1,1,1.52-1.52A1.53,1.53,0,0,1,564.45,372.44Z"/>
          <path class="cls-10" d="M605.66,376.54l-52.45,15.52,2.46,7.69,50-14.13c0-3.54,0-6.77,0-9.08Z"/>
          <path class="cls-10" d="M556.21,388.63a21.49,21.49,0,0,1,1.65-33.56l-1.83-1.9a24.1,24.1,0,0,0-2.72,36.32Z"/>
          <path class="cls-10" d="M583.24,373.78a3.35,3.35,0,1,0-3.34-3.34A3.35,3.35,0,0,0,583.24,373.78Z"/>
          <path class="cls-10" d="M605.66,374v-1a30.56,30.56,0,0,0-49.8-23.58l0,0,19.06,19.8v13.87Zm-22.42-8.73a5.17,5.17,0,0,1,2.8.83l3.41-3.42,1.3,1.29-3.38,3.38a5.11,5.11,0,0,1,1,3.09,5.17,5.17,0,1,1-5.17-5.17Z"/>
          <path class="cls-10" d="M586.94,397.51c7.68,0,14.71,4.53,18.74,11.81h0s0-11.2,0-21.17l-49.31,13.94c-1.71,2.58-3,5.19-4.6,7.23H568.2c4.11-7.4,11.11-11.81,18.74-11.81Z"/>
          <path class="cls-10" d="M586.94,400c-6.28,0-12.1,3.45-15.82,9.3h31.65C599.1,403.55,593.26,400,586.94,400Z"/>
        </g>
      </g>
      <g>
        <path d="M615.69,378c1,0-7-23-7-23l-5,6.79-2,9.21,1,9,5,7,9-3Z"/>
        <g>
          <path class="cls-10" d="M626.44,370.22l-8.77-9.11a11.09,11.09,0,0,0-2.81,5c-.25,1.08-.53,3.9-.53,3.9l-3.41,6.81a1,1,0,0,0-.08.41,1,1,0,0,0,1,1h2.45v3.62c0,2.76,1.09,4.14,2.69,4.74l9.42-2.79V370.22Zm-8,2.22a1.53,1.53,0,1,1,1.52-1.52A1.53,1.53,0,0,1,618.45,372.44Z"/>
          <path class="cls-10" d="M659.66,376.54l-52.45,15.52,2.46,7.69,50-14.13c0-3.54,0-6.77,0-9.08Z"/>
          <path class="cls-10" d="M610.21,388.63a21.49,21.49,0,0,1,1.65-33.56l-1.83-1.9a24.1,24.1,0,0,0-2.72,36.32Z"/>
          <path class="cls-10" d="M637.24,373.78a3.35,3.35,0,1,0-3.34-3.34A3.35,3.35,0,0,0,637.24,373.78Z"/>
          <path class="cls-10" d="M659.66,374v-1a30.56,30.56,0,0,0-49.8-23.58l0,0,19.06,19.8v13.87Zm-22.42-8.73a5.17,5.17,0,0,1,2.8.83l3.41-3.42,1.3,1.29-3.38,3.38a5.11,5.11,0,0,1,1,3.09,5.17,5.17,0,1,1-5.17-5.17Z"/>
          <path class="cls-10" d="M640.94,397.51c7.68,0,14.71,4.53,18.74,11.81h0s0-11.2,0-21.17l-49.31,13.94c-1.71,2.58-3,5.19-4.6,7.23H622.2c4.11-7.4,11.11-11.81,18.74-11.81Z"/>
          <path class="cls-10" d="M640.94,400c-6.28,0-12.1,3.45-15.82,9.3h31.65C653.1,403.55,647.26,400,640.94,400Z"/>
        </g>
      </g>
    </g>
    <g>
      <g>
        <path class="cls-8" d="M728.44,233.22l-8.77-9.11a11.09,11.09,0,0,0-2.81,5c-.25,1.08-.53,3.9-.53,3.9l-3.41,6.81a1,1,0,0,0-.08.41,1,1,0,0,0,1,1h2.45v3.62c0,2.76,1.09,4.14,2.69,4.74l9.42-2.79V233.22Zm-8,2.22a1.53,1.53,0,1,1,1.52-1.52A1.53,1.53,0,0,1,720.45,235.44Z"/>
        <path class="cls-8" d="M761.66,239.54l-52.45,15.52,2.46,7.69,50-14.13c0-3.54,0-6.77,0-9.08Z"/>
        <path class="cls-8" d="M712.21,251.63a21.49,21.49,0,0,1,1.65-33.56l-1.83-1.9a24.1,24.1,0,0,0-2.72,36.32Z"/>
        <path class="cls-8" d="M739.24,236.78a3.35,3.35,0,1,0-3.34-3.34A3.35,3.35,0,0,0,739.24,236.78Z"/>
        <path class="cls-8" d="M761.66,237v-1a30.56,30.56,0,0,0-49.8-23.58l0,0,19.06,19.8v13.87Zm-22.42-8.73a5.17,5.17,0,0,1,2.8.83l3.41-3.42,1.3,1.29-3.38,3.38a5.11,5.11,0,0,1,1,3.09,5.17,5.17,0,1,1-5.17-5.17Z"/>
        <path class="cls-8" d="M742.94,260.51c7.68,0,14.71,4.53,18.74,11.81h0s0-11.2,0-21.17l-49.31,13.94c-1.71,2.58-3,5.19-4.6,7.23H724.2c4.11-7.4,11.11-11.81,18.74-11.81Z"/>
        <path class="cls-8" d="M742.94,263c-6.28,0-12.1,3.45-15.82,9.3h31.65C755.1,266.55,749.26,263,742.94,263Z"/>
      </g>
      <text class="cls-9" transform="translate(705.63 288.4)">A<tspan class="cls-7" x="7.31" y="0">polo 8</tspan></text>
      <g>
        <path d="M771.69,242c1,0-7-23-7-23l-5,6.79-2,9.21,1,9,5,7,9-3Z"/>
        <g>
          <path class="cls-10" d="M782.44,233.22l-8.77-9.11a11.09,11.09,0,0,0-2.81,5c-.25,1.08-.53,3.9-.53,3.9l-3.41,6.81a1,1,0,0,0-.08.41,1,1,0,0,0,1,1h2.45v3.62c0,2.76,1.09,4.14,2.69,4.74l9.42-2.79V233.22Zm-8,2.22a1.53,1.53,0,1,1,1.52-1.52A1.53,1.53,0,0,1,774.45,235.44Z"/>
          <path class="cls-10" d="M815.66,239.54l-52.45,15.52,2.46,7.69,50-14.13c0-3.54,0-6.77,0-9.08Z"/>
          <path class="cls-10" d="M766.21,251.63a21.49,21.49,0,0,1,1.65-33.56l-1.83-1.9a24.1,24.1,0,0,0-2.72,36.32Z"/>
          <path class="cls-10" d="M793.24,236.78a3.35,3.35,0,1,0-3.34-3.34A3.35,3.35,0,0,0,793.24,236.78Z"/>
          <path class="cls-10" d="M815.66,237v-1a30.56,30.56,0,0,0-49.8-23.58l0,0,19.06,19.8v13.87Zm-22.42-8.73a5.17,5.17,0,0,1,2.8.83l3.41-3.42,1.3,1.29-3.38,3.38a5.11,5.11,0,0,1,1,3.09,5.17,5.17,0,1,1-5.17-5.17Z"/>
          <path class="cls-10" d="M796.94,260.51c7.68,0,14.71,4.53,18.74,11.81h0s0-11.2,0-21.17l-49.31,13.94c-1.71,2.58-3,5.19-4.6,7.23H778.2c4.11-7.4,11.11-11.81,18.74-11.81Z"/>
          <path class="cls-10" d="M796.94,263c-6.28,0-12.1,3.45-15.82,9.3h31.65C809.1,266.55,803.26,263,796.94,263Z"/>
        </g>
      </g>
      <g>
        <path d="M825.69,242c1,0-7-23-7-23l-5,6.79-2,9.21,1,9,5,7,9-3Z"/>
        <g>
          <path class="cls-8" d="M836.44,233.22l-8.77-9.11a11.09,11.09,0,0,0-2.81,5c-.25,1.08-.53,3.9-.53,3.9l-3.41,6.81a1,1,0,0,0-.08.41,1,1,0,0,0,1,1h2.45v3.62c0,2.76,1.09,4.14,2.69,4.74l9.42-2.79V233.22Zm-8,2.22a1.53,1.53,0,1,1,1.52-1.52A1.53,1.53,0,0,1,828.45,235.44Z"/>
          <path class="cls-8" d="M869.66,239.54l-52.45,15.52,2.46,7.69,50-14.13c0-3.54,0-6.77,0-9.08Z"/>
          <path class="cls-8" d="M820.21,251.63a21.49,21.49,0,0,1,1.65-33.56l-1.83-1.9a24.1,24.1,0,0,0-2.72,36.32Z"/>
          <path class="cls-8" d="M847.24,236.78a3.35,3.35,0,1,0-3.34-3.34A3.35,3.35,0,0,0,847.24,236.78Z"/>
          <path class="cls-8" d="M869.66,237v-1a30.56,30.56,0,0,0-49.8-23.58l0,0,19.06,19.8v13.87Zm-22.42-8.73a5.17,5.17,0,0,1,2.8.83l3.41-3.42,1.3,1.29-3.38,3.38a5.11,5.11,0,0,1,1,3.09,5.17,5.17,0,1,1-5.17-5.17Z"/>
          <path class="cls-8" d="M850.94,260.51c7.68,0,14.71,4.53,18.74,11.81h0s0-11.2,0-21.17l-49.31,13.94c-1.71,2.58-3,5.19-4.6,7.23H832.2c4.11-7.4,11.11-11.81,18.74-11.81Z"/>
          <path class="cls-8" d="M850.94,263c-6.28,0-12.1,3.45-15.82,9.3h31.65C863.1,266.55,857.26,263,850.94,263Z"/>
        </g>
      </g>
    </g>
    <g>
      <g>
        <path class="cls-8" d="M728.44,370.22l-8.77-9.11a11.09,11.09,0,0,0-2.81,5c-.25,1.08-.53,3.9-.53,3.9l-3.41,6.81a1,1,0,0,0-.08.41,1,1,0,0,0,1,1h2.45v3.62c0,2.76,1.09,4.14,2.69,4.74l9.42-2.79V370.22Zm-8,2.22a1.53,1.53,0,1,1,1.52-1.52A1.53,1.53,0,0,1,720.45,372.44Z"/>
        <path class="cls-8" d="M761.66,376.54l-52.45,15.52,2.46,7.69,50-14.13c0-3.54,0-6.77,0-9.08Z"/>
        <path class="cls-8" d="M712.21,388.63a21.49,21.49,0,0,1,1.65-33.56l-1.83-1.9a24.1,24.1,0,0,0-2.72,36.32Z"/>
        <path class="cls-8" d="M739.24,373.78a3.35,3.35,0,1,0-3.34-3.34A3.35,3.35,0,0,0,739.24,373.78Z"/>
        <path class="cls-8" d="M761.66,374v-1a30.56,30.56,0,0,0-49.8-23.58l0,0,19.06,19.8v13.87Zm-22.42-8.73a5.17,5.17,0,0,1,2.8.83l3.41-3.42,1.3,1.29-3.38,3.38a5.11,5.11,0,0,1,1,3.09,5.17,5.17,0,1,1-5.17-5.17Z"/>
        <path class="cls-8" d="M742.94,397.51c7.68,0,14.71,4.53,18.74,11.81h0s0-11.2,0-21.17l-49.31,13.94c-1.71,2.58-3,5.19-4.6,7.23H724.2c4.11-7.4,11.11-11.81,18.74-11.81Z"/>
        <path class="cls-8" d="M742.94,400c-6.28,0-12.1,3.45-15.82,9.3h31.65C755.1,403.55,749.26,400,742.94,400Z"/>
      </g>
      <text class="cls-9" transform="translate(705.63 425.4)">A<tspan class="cls-7" x="7.31" y="0">polo 11</tspan></text>
      <g>
        <path d="M771.69,379c1,0-7-23-7-23l-5,6.79-2,9.21,1,9,5,7,9-3Z"/>
        <g>
          <path class="cls-8" d="M782.44,370.22l-8.77-9.11a11.09,11.09,0,0,0-2.81,5c-.25,1.08-.53,3.9-.53,3.9l-3.41,6.81a1,1,0,0,0-.08.41,1,1,0,0,0,1,1h2.45v3.62c0,2.76,1.09,4.14,2.69,4.74l9.42-2.79V370.22Zm-8,2.22a1.53,1.53,0,1,1,1.52-1.52A1.53,1.53,0,0,1,774.45,372.44Z"/>
          <path class="cls-8" d="M815.66,376.54l-52.45,15.52,2.46,7.69,50-14.13c0-3.54,0-6.77,0-9.08Z"/>
          <path class="cls-8" d="M766.21,388.63a21.49,21.49,0,0,1,1.65-33.56l-1.83-1.9a24.1,24.1,0,0,0-2.72,36.32Z"/>
          <path class="cls-8" d="M793.24,373.78a3.35,3.35,0,1,0-3.34-3.34A3.35,3.35,0,0,0,793.24,373.78Z"/>
          <path class="cls-8" d="M815.66,374v-1a30.56,30.56,0,0,0-49.8-23.58l0,0,19.06,19.8v13.87Zm-22.42-8.73a5.17,5.17,0,0,1,2.8.83l3.41-3.42,1.3,1.29-3.38,3.38a5.11,5.11,0,0,1,1,3.09,5.17,5.17,0,1,1-5.17-5.17Z"/>
          <path class="cls-8" d="M796.94,397.51c7.68,0,14.71,4.53,18.74,11.81h0s0-11.2,0-21.17l-49.31,13.94c-1.71,2.58-3,5.19-4.6,7.23H778.2c4.11-7.4,11.11-11.81,18.74-11.81Z"/>
          <path class="cls-8" d="M796.94,400c-6.28,0-12.1,3.45-15.82,9.3h31.65C809.1,403.55,803.26,400,796.94,400Z"/>
        </g>
      </g>
      <g>
        <path d="M825.69,379c1,0-7-23-7-23l-5,6.79-2,9.21,1,9,5,7,9-3Z"/>
        <g>
          <path class="cls-8" d="M836.44,370.22l-8.77-9.11a11.09,11.09,0,0,0-2.81,5c-.25,1.08-.53,3.9-.53,3.9l-3.41,6.81a1,1,0,0,0-.08.41,1,1,0,0,0,1,1h2.45v3.62c0,2.76,1.09,4.14,2.69,4.74l9.42-2.79V370.22Zm-8,2.22a1.53,1.53,0,1,1,1.52-1.52A1.53,1.53,0,0,1,828.45,372.44Z"/>
          <path class="cls-8" d="M869.66,376.54l-52.45,15.52,2.46,7.69,50-14.13c0-3.54,0-6.77,0-9.08Z"/>
          <path class="cls-8" d="M820.21,388.63a21.49,21.49,0,0,1,1.65-33.56l-1.83-1.9a24.1,24.1,0,0,0-2.72,36.32Z"/>
          <path class="cls-8" d="M847.24,373.78a3.35,3.35,0,1,0-3.34-3.34A3.35,3.35,0,0,0,847.24,373.78Z"/>
          <path class="cls-8" d="M869.66,374v-1a30.56,30.56,0,0,0-49.8-23.58l0,0,19.06,19.8v13.87Zm-22.42-8.73a5.17,5.17,0,0,1,2.8.83l3.41-3.42,1.3,1.29-3.38,3.38a5.11,5.11,0,0,1,1,3.09,5.17,5.17,0,1,1-5.17-5.17Z"/>
          <path class="cls-8" d="M850.94,397.51c7.68,0,14.71,4.53,18.74,11.81h0s0-11.2,0-21.17l-49.31,13.94c-1.71,2.58-3,5.19-4.6,7.23H832.2c4.11-7.4,11.11-11.81,18.74-11.81Z"/>
          <path class="cls-8" d="M850.94,400c-6.28,0-12.1,3.45-15.82,9.3h31.65C863.1,403.55,857.26,400,850.94,400Z"/>
        </g>
      </g>
    </g>
    <g>
      <g>
        <path class="cls-11" d="M518.44,507.22l-8.77-9.11a11.09,11.09,0,0,0-2.81,5c-.25,1.08-.53,3.9-.53,3.9l-3.41,6.81a1,1,0,0,0-.08.41,1,1,0,0,0,1,1h2.45v3.62c0,2.76,1.09,4.14,2.69,4.74l9.42-2.79V507.22Zm-8,2.22a1.53,1.53,0,1,1,1.52-1.52A1.53,1.53,0,0,1,510.45,509.44Z"/>
        <path class="cls-11" d="M551.66,513.54l-52.45,15.52,2.46,7.69,50-14.13c0-3.54,0-6.77,0-9.08Z"/>
        <path class="cls-11" d="M502.21,525.63a21.49,21.49,0,0,1,1.65-33.56l-1.83-1.9a24.1,24.1,0,0,0-2.72,36.32Z"/>
        <path class="cls-11" d="M529.24,510.78a3.35,3.35,0,1,0-3.34-3.34A3.35,3.35,0,0,0,529.24,510.78Z"/>
        <path class="cls-11" d="M551.66,511v-1a30.56,30.56,0,0,0-49.8-23.58l0,0,19.06,19.8v13.87Zm-22.42-8.73a5.17,5.17,0,0,1,2.8.83l3.41-3.42,1.3,1.29-3.38,3.38a5.11,5.11,0,0,1,1,3.09,5.17,5.17,0,1,1-5.17-5.17Z"/>
        <path class="cls-11" d="M532.94,534.51c7.68,0,14.71,4.53,18.74,11.81h0s0-11.2,0-21.17l-49.31,13.94c-1.71,2.58-3,5.19-4.6,7.23H514.2c4.11-7.4,11.11-11.81,18.74-11.81Z"/>
        <path class="cls-11" d="M532.94,537c-6.28,0-12.1,3.45-15.82,9.3h31.65C545.1,540.55,539.26,537,532.94,537Z"/>
      </g>
      <text class="cls-9" transform="translate(496.63 562.4)">A<tspan class="cls-7" x="7.31" y="0">polo 13</tspan></text>
      <g>
        <path d="M561.69,516c1,0-7-23-7-23l-5,6.79-2,9.21,1,9,5,7,9-3Z"/>
        <g>
          <path class="cls-8" d="M572.44,507.22l-8.77-9.11a11.09,11.09,0,0,0-2.81,5c-.25,1.08-.53,3.9-.53,3.9l-3.41,6.81a1,1,0,0,0-.08.41,1,1,0,0,0,1,1h2.45v3.62c0,2.76,1.09,4.14,2.69,4.74l9.42-2.79V507.22Zm-8,2.22a1.53,1.53,0,1,1,1.52-1.52A1.53,1.53,0,0,1,564.45,509.44Z"/>
          <path class="cls-8" d="M605.66,513.54l-52.45,15.52,2.46,7.69,50-14.13c0-3.54,0-6.77,0-9.08Z"/>
          <path class="cls-8" d="M556.21,525.63a21.49,21.49,0,0,1,1.65-33.56l-1.83-1.9a24.1,24.1,0,0,0-2.72,36.32Z"/>
          <path class="cls-8" d="M583.24,510.78a3.35,3.35,0,1,0-3.34-3.34A3.35,3.35,0,0,0,583.24,510.78Z"/>
          <path class="cls-8" d="M605.66,511v-1a30.56,30.56,0,0,0-49.8-23.58l0,0,19.06,19.8v13.87Zm-22.42-8.73a5.17,5.17,0,0,1,2.8.83l3.41-3.42,1.3,1.29-3.38,3.38a5.11,5.11,0,0,1,1,3.09,5.17,5.17,0,1,1-5.17-5.17Z"/>
          <path class="cls-8" d="M586.94,534.51c7.68,0,14.71,4.53,18.74,11.81h0s0-11.2,0-21.17l-49.31,13.94c-1.71,2.58-3,5.19-4.6,7.23H568.2c4.11-7.4,11.11-11.81,18.74-11.81Z"/>
          <path class="cls-8" d="M586.94,537c-6.28,0-12.1,3.45-15.82,9.3h31.65C599.1,540.55,593.26,537,586.94,537Z"/>
        </g>
      </g>
      <g>
        <path d="M615.69,516c1,0-7-23-7-23l-5,6.79-2,9.21,1,9,5,7,9-3Z"/>
        <g>
          <path class="cls-8" d="M626.44,507.22l-8.77-9.11a11.09,11.09,0,0,0-2.81,5c-.25,1.08-.53,3.9-.53,3.9l-3.41,6.81a1,1,0,0,0-.08.41,1,1,0,0,0,1,1h2.45v3.62c0,2.76,1.09,4.14,2.69,4.74l9.42-2.79V507.22Zm-8,2.22a1.53,1.53,0,1,1,1.52-1.52A1.53,1.53,0,0,1,618.45,509.44Z"/>
          <path class="cls-8" d="M659.66,513.54l-52.45,15.52,2.46,7.69,50-14.13c0-3.54,0-6.77,0-9.08Z"/>
          <path class="cls-8" d="M610.21,525.63a21.49,21.49,0,0,1,1.65-33.56l-1.83-1.9a24.1,24.1,0,0,0-2.72,36.32Z"/>
          <path class="cls-8" d="M637.24,510.78a3.35,3.35,0,1,0-3.34-3.34A3.35,3.35,0,0,0,637.24,510.78Z"/>
          <path class="cls-8" d="M659.66,511v-1a30.56,30.56,0,0,0-49.8-23.58l0,0,19.06,19.8v13.87Zm-22.42-8.73a5.17,5.17,0,0,1,2.8.83l3.41-3.42,1.3,1.29-3.38,3.38a5.11,5.11,0,0,1,1,3.09,5.17,5.17,0,1,1-5.17-5.17Z"/>
          <path class="cls-8" d="M640.94,534.51c7.68,0,14.71,4.53,18.74,11.81h0s0-11.2,0-21.17l-49.31,13.94c-1.71,2.58-3,5.19-4.6,7.23H622.2c4.11-7.4,11.11-11.81,18.74-11.81Z"/>
          <path class="cls-8" d="M640.94,537c-6.28,0-12.1,3.45-15.82,9.3h31.65C653.1,540.55,647.26,537,640.94,537Z"/>
        </g>
      </g>
    </g>
    <g>
      <g>
        <path class="cls-8" d="M728.44,507.22l-8.77-9.11a11.09,11.09,0,0,0-2.81,5c-.25,1.08-.53,3.9-.53,3.9l-3.41,6.81a1,1,0,0,0-.08.41,1,1,0,0,0,1,1h2.45v3.62c0,2.76,1.09,4.14,2.69,4.74l9.42-2.79V507.22Zm-8,2.22a1.53,1.53,0,1,1,1.52-1.52A1.53,1.53,0,0,1,720.45,509.44Z"/>
        <path class="cls-8" d="M761.66,513.54l-52.45,15.52,2.46,7.69,50-14.13c0-3.54,0-6.77,0-9.08Z"/>
        <path class="cls-8" d="M712.21,525.63a21.49,21.49,0,0,1,1.65-33.56l-1.83-1.9a24.1,24.1,0,0,0-2.72,36.32Z"/>
        <path class="cls-8" d="M739.24,510.78a3.35,3.35,0,1,0-3.34-3.34A3.35,3.35,0,0,0,739.24,510.78Z"/>
        <path class="cls-8" d="M761.66,511v-1a30.56,30.56,0,0,0-49.8-23.58l0,0,19.06,19.8v13.87Zm-22.42-8.73a5.17,5.17,0,0,1,2.8.83l3.41-3.42,1.3,1.29-3.38,3.38a5.11,5.11,0,0,1,1,3.09,5.17,5.17,0,1,1-5.17-5.17Z"/>
        <path class="cls-8" d="M742.94,534.51c7.68,0,14.71,4.53,18.74,11.81h0s0-11.2,0-21.17l-49.31,13.94c-1.71,2.58-3,5.19-4.6,7.23H724.2c4.11-7.4,11.11-11.81,18.74-11.81Z"/>
        <path class="cls-8" d="M742.94,537c-6.28,0-12.1,3.45-15.82,9.3h31.65C755.1,540.55,749.26,537,742.94,537Z"/>
      </g>
      <text class="cls-9" transform="translate(705.63 562.4)">A<tspan class="cls-7" x="7.31" y="0">polo 14</tspan></text>
      <g>
        <path d="M771.69,516c1,0-7-23-7-23l-5,6.79-2,9.21,1,9,5,7,9-3Z"/>
        <g>
          <path class="cls-8" d="M782.44,507.22l-8.77-9.11a11.09,11.09,0,0,0-2.81,5c-.25,1.08-.53,3.9-.53,3.9l-3.41,6.81a1,1,0,0,0-.08.41,1,1,0,0,0,1,1h2.45v3.62c0,2.76,1.09,4.14,2.69,4.74l9.42-2.79V507.22Zm-8,2.22a1.53,1.53,0,1,1,1.52-1.52A1.53,1.53,0,0,1,774.45,509.44Z"/>
          <path class="cls-8" d="M815.66,513.54l-52.45,15.52,2.46,7.69,50-14.13c0-3.54,0-6.77,0-9.08Z"/>
          <path class="cls-8" d="M766.21,525.63a21.49,21.49,0,0,1,1.65-33.56l-1.83-1.9a24.1,24.1,0,0,0-2.72,36.32Z"/>
          <path class="cls-8" d="M793.24,510.78a3.35,3.35,0,1,0-3.34-3.34A3.35,3.35,0,0,0,793.24,510.78Z"/>
          <path class="cls-8" d="M815.66,511v-1a30.56,30.56,0,0,0-49.8-23.58l0,0,19.06,19.8v13.87Zm-22.42-8.73a5.17,5.17,0,0,1,2.8.83l3.41-3.42,1.3,1.29-3.38,3.38a5.11,5.11,0,0,1,1,3.09,5.17,5.17,0,1,1-5.17-5.17Z"/>
          <path class="cls-8" d="M796.94,534.51c7.68,0,14.71,4.53,18.74,11.81h0s0-11.2,0-21.17l-49.31,13.94c-1.71,2.58-3,5.19-4.6,7.23H778.2c4.11-7.4,11.11-11.81,18.74-11.81Z"/>
          <path class="cls-8" d="M796.94,537c-6.28,0-12.1,3.45-15.82,9.3h31.65C809.1,540.55,803.26,537,796.94,537Z"/>
        </g>
      </g>
      <g>
        <path d="M825.69,516c1,0-7-23-7-23l-5,6.79-2,9.21,1,9,5,7,9-3Z"/>
        <g>
          <path class="cls-8" d="M836.44,507.22l-8.77-9.11a11.09,11.09,0,0,0-2.81,5c-.25,1.08-.53,3.9-.53,3.9l-3.41,6.81a1,1,0,0,0-.08.41,1,1,0,0,0,1,1h2.45v3.62c0,2.76,1.09,4.14,2.69,4.74l9.42-2.79V507.22Zm-8,2.22a1.53,1.53,0,1,1,1.52-1.52A1.53,1.53,0,0,1,828.45,509.44Z"/>
          <path class="cls-8" d="M869.66,513.54l-52.45,15.52,2.46,7.69,50-14.13c0-3.54,0-6.77,0-9.08Z"/>
          <path class="cls-8" d="M820.21,525.63a21.49,21.49,0,0,1,1.65-33.56l-1.83-1.9a24.1,24.1,0,0,0-2.72,36.32Z"/>
          <path class="cls-8" d="M847.24,510.78a3.35,3.35,0,1,0-3.34-3.34A3.35,3.35,0,0,0,847.24,510.78Z"/>
          <path class="cls-8" d="M869.66,511v-1a30.56,30.56,0,0,0-49.8-23.58l0,0,19.06,19.8v13.87Zm-22.42-8.73a5.17,5.17,0,0,1,2.8.83l3.41-3.42,1.3,1.29-3.38,3.38a5.11,5.11,0,0,1,1,3.09,5.17,5.17,0,1,1-5.17-5.17Z"/>
          <path class="cls-8" d="M850.94,534.51c7.68,0,14.71,4.53,18.74,11.81h0s0-11.2,0-21.17l-49.31,13.94c-1.71,2.58-3,5.19-4.6,7.23H832.2c4.11-7.4,11.11-11.81,18.74-11.81Z"/>
          <path class="cls-8" d="M850.94,537c-6.28,0-12.1,3.45-15.82,9.3h31.65C863.1,540.55,857.26,537,850.94,537Z"/>
        </g>
      </g>
    </g>
    <g>
      <g>
        <path class="cls-11" d="M518.44,644.22l-8.77-9.11a11.09,11.09,0,0,0-2.81,5c-.25,1.08-.53,3.9-.53,3.9l-3.41,6.81a1,1,0,0,0-.08.41,1,1,0,0,0,1,1h2.45v3.62c0,2.76,1.09,4.14,2.69,4.74l9.42-2.79V644.22Zm-8,2.22a1.53,1.53,0,1,1,1.52-1.52A1.53,1.53,0,0,1,510.45,646.44Z"/>
        <path class="cls-11" d="M551.66,650.54l-52.45,15.52,2.46,7.69,50-14.13c0-3.54,0-6.77,0-9.08Z"/>
        <path class="cls-11" d="M502.21,662.63a21.49,21.49,0,0,1,1.65-33.56l-1.83-1.9a24.1,24.1,0,0,0-2.72,36.32Z"/>
        <path class="cls-11" d="M529.24,647.78a3.35,3.35,0,1,0-3.34-3.34A3.35,3.35,0,0,0,529.24,647.78Z"/>
        <path class="cls-11" d="M551.66,648v-1a30.56,30.56,0,0,0-49.8-23.58l0,0,19.06,19.8v13.87Zm-22.42-8.73a5.17,5.17,0,0,1,2.8.83l3.41-3.42,1.3,1.29-3.38,3.38a5.11,5.11,0,0,1,1,3.09,5.17,5.17,0,1,1-5.17-5.17Z"/>
        <path class="cls-11" d="M532.94,671.51c7.68,0,14.71,4.53,18.74,11.81h0s0-11.2,0-21.17l-49.31,13.94c-1.71,2.58-3,5.19-4.6,7.23H514.2c4.11-7.4,11.11-11.81,18.74-11.81Z"/>
        <path class="cls-11" d="M532.94,674c-6.28,0-12.1,3.45-15.82,9.3h31.65C545.1,677.55,539.26,674,532.94,674Z"/>
      </g>
      <text class="cls-9" transform="translate(496.63 699.4)">A<tspan class="cls-7" x="7.31" y="0">polo 16</tspan></text>
      <g>
        <path d="M561.69,653c1,0-7-23-7-23l-5,6.79-2,9.21,1,9,5,7,9-3Z"/>
        <g>
          <path class="cls-8" d="M572.44,644.22l-8.77-9.11a11.09,11.09,0,0,0-2.81,5c-.25,1.08-.53,3.9-.53,3.9l-3.41,6.81a1,1,0,0,0-.08.41,1,1,0,0,0,1,1h2.45v3.62c0,2.76,1.09,4.14,2.69,4.74l9.42-2.79V644.22Zm-8,2.22a1.53,1.53,0,1,1,1.52-1.52A1.53,1.53,0,0,1,564.45,646.44Z"/>
          <path class="cls-8" d="M605.66,650.54l-52.45,15.52,2.46,7.69,50-14.13c0-3.54,0-6.77,0-9.08Z"/>
          <path class="cls-8" d="M556.21,662.63a21.49,21.49,0,0,1,1.65-33.56l-1.83-1.9a24.1,24.1,0,0,0-2.72,36.32Z"/>
          <path class="cls-8" d="M583.24,647.78a3.35,3.35,0,1,0-3.34-3.34A3.35,3.35,0,0,0,583.24,647.78Z"/>
          <path class="cls-8" d="M605.66,648v-1a30.56,30.56,0,0,0-49.8-23.58l0,0,19.06,19.8v13.87Zm-22.42-8.73a5.17,5.17,0,0,1,2.8.83l3.41-3.42,1.3,1.29-3.38,3.38a5.11,5.11,0,0,1,1,3.09,5.17,5.17,0,1,1-5.17-5.17Z"/>
          <path class="cls-8" d="M586.94,671.51c7.68,0,14.71,4.53,18.74,11.81h0s0-11.2,0-21.17l-49.31,13.94c-1.71,2.58-3,5.19-4.6,7.23H568.2c4.11-7.4,11.11-11.81,18.74-11.81Z"/>
          <path class="cls-8" d="M586.94,674c-6.28,0-12.1,3.45-15.82,9.3h31.65C599.1,677.55,593.26,674,586.94,674Z"/>
        </g>
      </g>
      <g>
        <path d="M615.69,653c1,0-7-23-7-23l-5,6.79-2,9.21,1,9,5,7,9-3Z"/>
        <g>
          <path class="cls-8" d="M626.44,644.22l-8.77-9.11a11.09,11.09,0,0,0-2.81,5c-.25,1.08-.53,3.9-.53,3.9l-3.41,6.81a1,1,0,0,0-.08.41,1,1,0,0,0,1,1h2.45v3.62c0,2.76,1.09,4.14,2.69,4.74l9.42-2.79V644.22Zm-8,2.22a1.53,1.53,0,1,1,1.52-1.52A1.53,1.53,0,0,1,618.45,646.44Z"/>
          <path class="cls-8" d="M659.66,650.54l-52.45,15.52,2.46,7.69,50-14.13c0-3.54,0-6.77,0-9.08Z"/>
          <path class="cls-8" d="M610.21,662.63a21.49,21.49,0,0,1,1.65-33.56l-1.83-1.9a24.1,24.1,0,0,0-2.72,36.32Z"/>
          <path class="cls-8" d="M637.24,647.78a3.35,3.35,0,1,0-3.34-3.34A3.35,3.35,0,0,0,637.24,647.78Z"/>
          <path class="cls-8" d="M659.66,648v-1a30.56,30.56,0,0,0-49.8-23.58l0,0,19.06,19.8v13.87Zm-22.42-8.73a5.17,5.17,0,0,1,2.8.83l3.41-3.42,1.3,1.29-3.38,3.38a5.11,5.11,0,0,1,1,3.09,5.17,5.17,0,1,1-5.17-5.17Z"/>
          <path class="cls-8" d="M640.94,671.51c7.68,0,14.71,4.53,18.74,11.81h0s0-11.2,0-21.17l-49.31,13.94c-1.71,2.58-3,5.19-4.6,7.23H622.2c4.11-7.4,11.11-11.81,18.74-11.81Z"/>
          <path class="cls-8" d="M640.94,674c-6.28,0-12.1,3.45-15.82,9.3h31.65C653.1,677.55,647.26,674,640.94,674Z"/>
        </g>
      </g>
    </g>
    <g>
      <g>
        <path class="cls-11" d="M728.44,644.22l-8.77-9.11a11.09,11.09,0,0,0-2.81,5c-.25,1.08-.53,3.9-.53,3.9l-3.41,6.81a1,1,0,0,0-.08.41,1,1,0,0,0,1,1h2.45v3.62c0,2.76,1.09,4.14,2.69,4.74l9.42-2.79V644.22Zm-8,2.22a1.53,1.53,0,1,1,1.52-1.52A1.53,1.53,0,0,1,720.45,646.44Z"/>
        <path class="cls-11" d="M761.66,650.54l-52.45,15.52,2.46,7.69,50-14.13c0-3.54,0-6.77,0-9.08Z"/>
        <path class="cls-11" d="M712.21,662.63a21.49,21.49,0,0,1,1.65-33.56l-1.83-1.9a24.1,24.1,0,0,0-2.72,36.32Z"/>
        <path class="cls-11" d="M739.24,647.78a3.35,3.35,0,1,0-3.34-3.34A3.35,3.35,0,0,0,739.24,647.78Z"/>
        <path class="cls-11" d="M761.66,648v-1a30.56,30.56,0,0,0-49.8-23.58l0,0,19.06,19.8v13.87Zm-22.42-8.73a5.17,5.17,0,0,1,2.8.83l3.41-3.42,1.3,1.29-3.38,3.38a5.11,5.11,0,0,1,1,3.09,5.17,5.17,0,1,1-5.17-5.17Z"/>
        <path class="cls-11" d="M742.94,671.51c7.68,0,14.71,4.53,18.74,11.81h0s0-11.2,0-21.17l-49.31,13.94c-1.71,2.58-3,5.19-4.6,7.23H724.2c4.11-7.4,11.11-11.81,18.74-11.81Z"/>
        <path class="cls-11" d="M742.94,674c-6.28,0-12.1,3.45-15.82,9.3h31.65C755.1,677.55,749.26,674,742.94,674Z"/>
      </g>
      <text class="cls-9" transform="translate(705.63 699.4)">A<tspan class="cls-7" x="7.31" y="0">polo 17</tspan></text>
      <g>
        <path d="M771.69,653c1,0-7-23-7-23l-5,6.79-2,9.21,1,9,5,7,9-3Z"/>
        <g>
          <path class="cls-8" d="M782.44,644.22l-8.77-9.11a11.09,11.09,0,0,0-2.81,5c-.25,1.08-.53,3.9-.53,3.9l-3.41,6.81a1,1,0,0,0-.08.41,1,1,0,0,0,1,1h2.45v3.62c0,2.76,1.09,4.14,2.69,4.74l9.42-2.79V644.22Zm-8,2.22a1.53,1.53,0,1,1,1.52-1.52A1.53,1.53,0,0,1,774.45,646.44Z"/>
          <path class="cls-8" d="M815.66,650.54l-52.45,15.52,2.46,7.69,50-14.13c0-3.54,0-6.77,0-9.08Z"/>
          <path class="cls-8" d="M766.21,662.63a21.49,21.49,0,0,1,1.65-33.56l-1.83-1.9a24.1,24.1,0,0,0-2.72,36.32Z"/>
          <path class="cls-8" d="M793.24,647.78a3.35,3.35,0,1,0-3.34-3.34A3.35,3.35,0,0,0,793.24,647.78Z"/>
          <path class="cls-8" d="M815.66,648v-1a30.56,30.56,0,0,0-49.8-23.58l0,0,19.06,19.8v13.87Zm-22.42-8.73a5.17,5.17,0,0,1,2.8.83l3.41-3.42,1.3,1.29-3.38,3.38a5.11,5.11,0,0,1,1,3.09,5.17,5.17,0,1,1-5.17-5.17Z"/>
          <path class="cls-8" d="M796.94,671.51c7.68,0,14.71,4.53,18.74,11.81h0s0-11.2,0-21.17l-49.31,13.94c-1.71,2.58-3,5.19-4.6,7.23H778.2c4.11-7.4,11.11-11.81,18.74-11.81Z"/>
          <path class="cls-8" d="M796.94,674c-6.28,0-12.1,3.45-15.82,9.3h31.65C809.1,677.55,803.26,674,796.94,674Z"/>
        </g>
      </g>
      <g>
        <path d="M825.69,653c1,0-7-23-7-23l-5,6.79-2,9.21,1,9,5,7,9-3Z"/>
        <g>
          <path class="cls-8" d="M836.44,644.22l-8.77-9.11a11.09,11.09,0,0,0-2.81,5c-.25,1.08-.53,3.9-.53,3.9l-3.41,6.81a1,1,0,0,0-.08.41,1,1,0,0,0,1,1h2.45v3.62c0,2.76,1.09,4.14,2.69,4.74l9.42-2.79V644.22Zm-8,2.22a1.53,1.53,0,1,1,1.52-1.52A1.53,1.53,0,0,1,828.45,646.44Z"/>
          <path class="cls-8" d="M869.66,650.54l-52.45,15.52,2.46,7.69,50-14.13c0-3.54,0-6.77,0-9.08Z"/>
          <path class="cls-8" d="M820.21,662.63a21.49,21.49,0,0,1,1.65-33.56l-1.83-1.9a24.1,24.1,0,0,0-2.72,36.32Z"/>
          <path class="cls-8" d="M847.24,647.78a3.35,3.35,0,1,0-3.34-3.34A3.35,3.35,0,0,0,847.24,647.78Z"/>
          <path class="cls-8" d="M869.66,648v-1a30.56,30.56,0,0,0-49.8-23.58l0,0,19.06,19.8v13.87Zm-22.42-8.73a5.17,5.17,0,0,1,2.8.83l3.41-3.42,1.3,1.29-3.38,3.38a5.11,5.11,0,0,1,1,3.09,5.17,5.17,0,1,1-5.17-5.17Z"/>
          <path class="cls-8" d="M850.94,671.51c7.68,0,14.71,4.53,18.74,11.81h0s0-11.2,0-21.17l-49.31,13.94c-1.71,2.58-3,5.19-4.6,7.23H832.2c4.11-7.4,11.11-11.81,18.74-11.81Z"/>
          <path class="cls-8" d="M850.94,674c-6.28,0-12.1,3.45-15.82,9.3h31.65C863.1,677.55,857.26,674,850.94,674Z"/>
        </g>
      </g>
    </g>
    <text class="cls-12" transform="translate(101.94 218.38)">No sob<tspan class="cls-13" x="44.49" y="0">r</tspan><tspan class="cls-14" x="49.1" y="0">e</tspan><tspan x="56.42" y="0">vivie</tspan><tspan class="cls-15" x="84.2" y="0">r</tspan><tspan x="88.8" y="0">on</tspan></text>
    <rect class="cls-5" x="66.13" y="202" width="23" height="23"/>
    <text class="cls-12" transform="translate(101.94 262.77)">Sob<tspan class="cls-13" x="24.14" y="0">r</tspan><tspan class="cls-14" x="28.75" y="0">e</tspan><tspan x="36.08" y="0">vivie</tspan><tspan class="cls-15" x="63.85" y="0">r</tspan><tspan x="68.46" y="0">on</tspan></text>
    <rect class="cls-8" x="66.13" y="245.56" width="23" height="23"/>
    <text class="cls-12" transform="translate(101.94 305.57)"><tspan class="cls-16">V</tspan><tspan x="8.59" y="0">olvie</tspan><tspan class="cls-15" x="37.57" y="0">r</tspan><tspan x="42.17" y="0">on a viajar</tspan></text>
    <rect class="cls-10" x="66.13" y="289.19" width="23" height="23"/>
    <text class="cls-12" transform="translate(101.44 338.88)">Dónde <tspan class="cls-17" x="43.67" y="0">v</tspan><tspan x="50.35" y="0">olvie</tspan><tspan class="cls-15" x="79.32" y="0">r</tspan><tspan x="83.92" y="0">on </tspan><tspan x="0" y="16.8">a viajar</tspan></text>
    <rect class="cls-11" x="66.13" y="330.5" width="23" height="23"/>
  </g>
</svg>
