<?xml version="1.0" encoding="utf-8"?>
<!-- Generator: Adobe Illustrator 26.0.1, SVG Export Plug-In . SVG Version: 6.00 Build 0)  -->
<svg version="1.1" xmlns="http://www.w3.org/2000/svg" xmlns:xlink="http://www.w3.org/1999/xlink" x="0px" y="0px"
	 viewBox="0 0 1920 1109.02" style="enable-background:new 0 0 1920 1109.02;" xml:space="preserve">
<style type="text/css">
	.st0{fill:#6B6B6B;}
	.st1{font-family:'ArialMT';}
	.st2{font-size:14.5517px;}
	.st3{fill:#22B573;}
	.st4{fill:#C1272D;}
	.st5{fill:#FFAC00;}
	.st6{fill:none;stroke:#6B6B6B;stroke-linejoin:round;stroke-miterlimit:10;stroke-dasharray:5;}
	.st7{opacity:0.4;fill:none;stroke:#6B6B6B;stroke-width:35;stroke-linecap:round;stroke-linejoin:round;stroke-miterlimit:10;}
	.st8{opacity:0.6;fill:none;stroke:#FFFFFF;stroke-width:5;stroke-linecap:round;stroke-linejoin:round;stroke-miterlimit:10;}
	.st9{fill:none;}
	.st10{fill:#FF7C00;}
	.st11{fill:#FFFFFF;}
	.st12{font-size:20px;}
	.st13{font-family:'Arial-BoldMT';}
	.st14{font-size:24px;}
	.st15{font-size:16px;}
	.st16{font-size:18px;}
	.st17{font-family:'MyriadPro-Regular';}
</style>
<g id="Fondo">
	<g>
		<rect width="1920" height="1109.02"/>
	</g>
</g>
<g id="Layer_2">
	<text transform="matrix(1 0 0 1 1489.8633 108.3097)" class="st0 st1 st2">Éxito</text>
	<text transform="matrix(1 0 0 1 1752.9458 108.3097)" class="st0 st1 st2">Fracaso</text>
	<text transform="matrix(1 0 0 1 1588.4468 108.4689)" class="st0 st1 st2">Fracaso parcial</text>
	<path class="st3" d="M1467.76,95.26c-2,0-3.93,0.8-5.34,2.21c-1.42,1.42-2.21,3.34-2.21,5.34c0,2,0.8,3.93,2.21,5.34
		c1.42,1.42,3.34,2.21,5.34,2.21c2,0,3.93-0.8,5.34-2.21c1.42-1.42,2.21-3.34,2.21-5.34c0-2-0.8-3.93-2.21-5.34
		C1471.68,96.06,1469.76,95.26,1467.76,95.26L1467.76,95.26z M1470.83,101.19l-3.89,3.89c-0.11,0.11-0.26,0.17-0.42,0.17h-0.02
		c-0.16-0.01-0.32-0.08-0.43-0.21l-1.43-1.66c-0.2-0.25-0.17-0.61,0.07-0.82c0.24-0.21,0.61-0.19,0.82,0.05l1.01,1.18l3.44-3.44h0
		c0.23-0.23,0.6-0.23,0.83,0S1471.06,100.96,1470.83,101.19L1470.83,101.19z"/>
	<g>
		<path class="st4" d="M1571.68,97.47c-1.42-1.42-3.34-2.21-5.34-2.22v0c-2,0-3.93,0.8-5.34,2.21c-1.42,1.42-2.21,3.34-2.21,5.34
			c0,2,0.8,3.93,2.21,5.34c1.42,1.42,3.34,2.21,5.34,2.21c2,0,3.93-0.8,5.34-2.21c1.42-1.42,2.21-3.34,2.21-5.34
			C1573.89,100.81,1573.1,98.89,1571.68,97.47z M1569.42,105.13c0.21,0.21,0.21,0.56,0,0.77c-0.11,0.11-0.25,0.16-0.39,0.16
			c-0.14,0-0.28-0.05-0.39-0.16l-2.31-2.31l-2.31,2.31c-0.11,0.11-0.25,0.16-0.39,0.16c-0.14,0-0.28-0.05-0.39-0.16
			c-0.21-0.21-0.21-0.56,0-0.77l2.31-2.31l-2.31-2.31c-0.21-0.21-0.21-0.56,0-0.77c0.21-0.21,0.56-0.21,0.77,0l2.31,2.31l2.31-2.31
			c0.21-0.21,0.56-0.21,0.77,0c0.21,0.21,0.21,0.56,0,0.77l-2.31,2.31L1569.42,105.13z"/>
	</g>
	<g>
		<path class="st5" d="M1730.84,95.26c-4.17,0-7.56,3.38-7.56,7.56c0,4.17,3.38,7.56,7.56,7.56s7.56-3.38,7.56-7.56
			C1738.39,98.64,1735.01,95.26,1730.84,95.26z M1733.72,103.36h-5.76c-0.3,0-0.55-0.24-0.55-0.55c0-0.3,0.24-0.55,0.55-0.55h5.76
			c0.3,0,0.55,0.24,0.55,0.55C1734.26,103.12,1734.02,103.36,1733.72,103.36z"/>
	</g>
	<rect x="1438.46" y="80.71" class="st6" width="390.09" height="49.52"/>
	<path class="st7" d="M135,276.5h1360.96c85.07,0,154.04,68.97,154.04,154.04v0c0,85.07-68.97,154.04-154.04,154.04H408.97
		c-80.64,0-146.01,65.37-146.01,146.01v0c0,80.64,65.37,146.01,146.01,146.01H1785"/>
	<path class="st8" d="M135,276.5h1360.96c85.07,0,154.04,68.97,154.04,154.04v0c0,85.07-68.97,154.04-154.04,154.04H408.97
		c-80.64,0-146.01,65.37-146.01,146.01v0c0,80.64,65.37,146.01,146.01,146.01H1785"/>
	<g>
		<polygon class="st9" points="-247.02,152.74 -247.02,152.78 -243.46,151.81 -243.46,151.77 		"/>
		<polygon class="st9" points="-243.22,151.71 -243.22,151.71 -243.22,151.71 		"/>
		<polygon class="st10" points="-172.32,146.98 -172.32,154.43 -155.83,152.3 -155.83,146.98 		"/>
		<polygon class="st10" points="-218.26,153.77 -218.26,157.41 -211.55,155.31 -211.55,152.23 		"/>
		<rect x="-205.51" y="138.03" class="st10" width="17.46" height="17.12"/>
		<rect x="-242.5" y="133.47" class="st10" width="15.38" height="4.32"/>
		<polygon class="st10" points="-226.17,155.59 -226.17,159.88 -219.22,157.71 -219.22,153.99 		"/>
		<rect x="-154.87" y="140.91" class="st10" width="9.92" height="11.22"/>
		<polygon class="st10" points="-173.28,154.56 -173.28,138.62 -177.39,138.09 -177.39,155.09 		"/>
		<polygon class="st10" points="-219.22,139.24 -219.22,135.47 -226.17,133.3 -226.17,137.22 		"/>
		<rect x="-183.14" y="138.03" class="st10" width="4.79" height="17.12"/>
		<polygon class="st10" points="-246.97,128.21 -246.97,132.51 -230.4,132.51 		"/>
		<polygon class="st10" points="-211.55,151.24 -211.55,137.87 -218.26,135.77 -218.26,152.79 		"/>
		<rect x="-242.5" y="156.64" class="st10" width="15.38" height="3.06"/>
		<polygon class="st10" points="-227.12,148.36 -242.5,152.54 -242.5,155.68 -227.12,155.68 		"/>
		<rect x="-187.09" y="138.03" class="st10" width="2.99" height="17.12"/>
		<polygon class="st10" points="-155.83,146.02 -155.83,140.87 -172.32,138.74 -172.32,146.02 		"/>
		<polygon class="st10" points="-243.46,151.71 -243.22,151.71 -243.22,151.71 -243.22,151.71 -243.09,151.71 -227.12,147.37 
			-227.12,146.66 -246.97,141.28 -247.02,152.74 -243.46,151.77 		"/>
		<polygon class="st10" points="-230.4,160.66 -246.89,160.66 -246.89,159.7 -243.46,159.7 -243.46,156.64 -243.46,155.68 
			-243.46,154.57 -246.97,154.57 -246.97,164.97 		"/>
		<path class="st10" d="M-247.93,154.57h-5.77v0.6c2.43,0.74,4.73,1.77,5.77,2.26V154.57z"/>
		<path class="st10" d="M-115.36,147.8l1.81-0.67c0.2-0.08,0.33-0.26,0.33-0.48v0c0-0.21-0.13-0.4-0.33-0.48l-1.72-0.65l-15.17-0.01
			v2.3L-115.36,147.8z"/>
		<polygon class="st10" points="-241.62,171.42 -236.56,163.25 -245.18,165.5 -245.18,171.42 		"/>
		<path class="st10" d="M-253.7,151.44v0.35h5.72l0.01-2.59C-249.03,149.69-251.3,150.7-253.7,151.44z"/>
		<polygon class="st10" points="-241.62,121.58 -245.18,121.58 -245.18,127.68 -236.42,129.96 		"/>
		<path class="st10" d="M-258.29,155.26v9.38h0.24c3.3,0,8.19-2.1,10.12-2.99v-3.16C-248.93,158.02-254.68,155.32-258.29,155.26z"/>
		<path class="st10" d="M-247.93,132.31c-1.88-0.9-6.57-2.97-10.12-2.97h-0.24v9.66c3.61-0.06,9.37-2.75,10.36-3.23L-247.93,132.31z
			"/>
		<polygon class="st10" points="-219.22,140.24 -226.17,138.22 -226.17,154.61 -219.22,153.01 		"/>
		<rect x="-210.59" y="138.03" class="st10" width="4.12" height="17.12"/>
		<path class="st10" d="M-243.46,137.79l0-4.32h-3.51l0,5.75h-0.96v-2.4c-1.04,0.49-3.35,1.52-5.77,2.26v0.14l10.24,0v-0.47V137.79z
			"/>
		<polygon class="st10" points="-139.97,149.45 -139.97,149.14 -139.97,143.89 -139.97,143.59 -139.96,143.59 -143.99,141.01 
			-143.99,152.02 		"/>
		<line class="st10" x1="-144.47" y1="152.33" x2="-144.47" y2="152.33"/>
		<polygon class="st10" points="-130.92,148.49 -130.92,148.49 -131.4,148.49 -131.4,144.68 -139.01,144.71 -139.01,148.52 		"/>
		<polygon class="st10" points="-227.12,138.75 -242.5,138.75 -242.5,141.49 -227.12,145.66 		"/>
		<path class="st10" d="M-247.95,144.87c-1.89-0.91-6.56-2.96-10.11-2.96h-0.24l0,9.44c3.57-0.05,9.24-2.69,10.33-3.21
			L-247.95,144.87z"/>
		<line x1="-143.99" y1="140.91" x2="-144.95" y2="140.91"/>
		<line x1="-144.95" y1="152.13" x2="-144.47" y2="152.13"/>
		<polygon points="-243.22,142.22 -243.22,142.22 -243.22,142.22 		"/>
		<polygon points="-243.22,142.22 -243.46,142.16 -243.46,142.22 		"/>
		<polygon points="-243.22,151.71 -243.46,151.77 -243.46,151.81 -243.22,151.74 -243.22,151.71 		"/>
		<polygon points="-243.22,151.71 -243.22,151.74 -243.09,151.71 		"/>
		<polygon points="-243.46,151.77 -243.22,151.71 -243.46,151.71 		"/>
	</g>
	<rect x="146.56" y="308.22" class="st9" width="274.96" height="95.66"/>
	<text transform="matrix(1 0 0 1 146.5647 325.3858)"><tspan x="0" y="0" class="st11 st1 st12">Durante una prueba en la </tspan><tspan x="0" y="24" class="st11 st1 st12">plataforma de lanzamiento un </tspan><tspan x="0" y="48" class="st11 st1 st12">incendio terminó con la vida </tspan><tspan x="0" y="72" class="st11 st1 st12">de tres astronautas.</tspan></text>
	<rect x="107.13" y="197.69" class="st9" width="234.95" height="49.79"/>
	<text transform="matrix(1 0 0 1 180.6058 218.2843)"><tspan x="0" y="0" class="st11 st13 st14">Apolo 1</tspan><tspan x="-29.85" y="24" class="st0 st1 st15">27 de enero de 1967</tspan></text>
	<g>
		<path class="st4" d="M164.29,204.05c-1.95-1.95-4.59-3.04-7.34-3.05v0c-2.75,0-5.4,1.09-7.34,3.04c-1.95,1.95-3.04,4.59-3.04,7.34
			c0,2.75,1.09,5.4,3.04,7.34c1.95,1.95,4.59,3.04,7.34,3.04c2.75,0,5.4-1.09,7.35-3.04c1.95-1.95,3.04-4.59,3.04-7.34
			C167.34,208.64,166.24,206,164.29,204.05z M161.19,214.57c0.29,0.29,0.29,0.77,0,1.06c-0.15,0.15-0.34,0.22-0.53,0.22
			s-0.38-0.07-0.53-0.22l-3.18-3.18l-3.18,3.18c-0.15,0.15-0.34,0.22-0.53,0.22s-0.38-0.07-0.53-0.22c-0.29-0.29-0.29-0.77,0-1.06
			l3.18-3.18l-3.18-3.18c-0.29-0.29-0.29-0.77,0-1.06s0.77-0.29,1.06,0l3.18,3.18l3.18-3.18c0.29-0.29,0.77-0.29,1.06,0
			s0.29,0.77,0,1.06l-3.18,3.18L161.19,214.57z"/>
	</g>
	<g>
		<polygon class="st10" points="-218.04,249.04 -207.84,246.15 -184.83,246.15 -184.83,233.35 -207.84,233.35 -218.04,230.46 
			-218.75,230.46 -218.75,249.04 		"/>
		<polygon class="st10" points="-182.52,246.15 -168.88,242.77 -161.52,242.77 -158.14,240.66 -148.3,240.66 -148.3,238.84 
			-158.14,238.84 -161.52,236.73 -168.88,236.73 -182.52,233.35 -184.83,233.35 -184.83,246.15 		"/>
		<polygon class="st10" points="-269.31,256.63 -259.46,249.04 -259.46,249.04 -218.75,249.04 -218.75,230.46 -259.46,230.46 
			-269.31,222.87 -272.89,222.87 -272.89,231.31 -278.49,228.13 -281.51,228.13 -281.51,251.37 -278.49,251.37 -272.89,248.19 
			-272.89,256.63 		"/>
	</g>
	<rect x="-357.47" y="321.6" class="st10" width="40.37" height="32.97"/>
	<rect x="-304.98" y="321.6" class="st5" width="40.37" height="32.97"/>
	<rect x="-254.96" y="321.6" width="40.37" height="32.97"/>
	<rect x="-202.47" y="321.6" class="st0" width="40.37" height="32.97"/>
	<rect x="-150.63" y="321.6" class="st11" width="40.37" height="32.97"/>
	<rect x="617.5" y="196.89" class="st9" width="340.49" height="49.79"/>
	<text transform="matrix(1 0 0 1 617.5035 217.4756)"><tspan x="0" y="0" class="st11 st13 st14">Apolo 4</tspan><tspan x="0" y="24" class="st0 st1 st15">9 de noviembre de 1967</tspan></text>
	<path class="st3" d="M594.69,198.5c-2.75,0-5.4,1.09-7.34,3.04c-1.95,1.95-3.04,4.59-3.04,7.34c0,2.75,1.09,5.4,3.04,7.34
		c1.95,1.95,4.59,3.04,7.34,3.04c2.75,0,5.4-1.09,7.35-3.04c1.95-1.95,3.04-4.59,3.04-7.34c0-2.75-1.1-5.39-3.04-7.34
		C600.08,199.6,597.44,198.5,594.69,198.5L594.69,198.5z M598.91,206.65l-5.35,5.35c-0.15,0.15-0.36,0.24-0.57,0.24h-0.03
		c-0.23-0.01-0.44-0.11-0.59-0.28l-1.96-2.29c-0.28-0.34-0.23-0.84,0.1-1.13c0.33-0.29,0.83-0.25,1.13,0.07l1.39,1.62l4.73-4.73h0
		c0.32-0.32,0.83-0.32,1.15,0C599.23,205.82,599.23,206.34,598.91,206.65L598.91,206.65z"/>
	<g>
		<rect x="584.3" y="311.07" class="st9" width="289.38" height="107.69"/>
		<text transform="matrix(1 0 0 1 584.3024 326.5132)"><tspan x="0" y="0" class="st11 st1 st16">Esta prueba debía ser el primer </tspan><tspan x="0" y="21.6" class="st11 st1 st16">lanzamiento tripulado. Sin embargo, </tspan><tspan x="0" y="43.2" class="st11 st1 st16">tras el accidente del Apolo 1 se </tspan><tspan x="0" y="64.8" class="st11 st1 st16">decidió realizar esta misión sin </tspan><tspan x="0" y="86.4" class="st11 st1 st16">tripulación abordo.</tspan></text>
	</g>
	<rect x="1142.28" y="196.89" class="st9" width="340.49" height="49.79"/>
	<text transform="matrix(1 0 0 1 1142.2784 217.4756)"><tspan x="0" y="0" class="st11 st13 st14">Apolo 5</tspan><tspan x="0" y="24" class="st0 st1 st15">22 de enero de 1968</tspan></text>
	<path class="st3" d="M1118.43,200.29c-2.75,0-5.4,1.09-7.34,3.04c-1.95,1.95-3.04,4.59-3.04,7.34c0,2.75,1.09,5.4,3.04,7.34
		c1.95,1.95,4.59,3.04,7.34,3.04c2.75,0,5.4-1.09,7.35-3.04c1.95-1.95,3.04-4.59,3.04-7.34c0-2.75-1.1-5.39-3.04-7.34
		C1123.83,201.39,1121.19,200.3,1118.43,200.29L1118.43,200.29z M1122.66,208.45l-5.35,5.35c-0.15,0.15-0.36,0.24-0.57,0.24h-0.03
		c-0.23-0.01-0.44-0.11-0.59-0.28l-1.96-2.29c-0.28-0.34-0.23-0.84,0.1-1.13c0.33-0.29,0.83-0.25,1.13,0.07l1.39,1.62l4.73-4.73h0
		c0.32-0.32,0.83-0.32,1.15,0C1122.97,207.62,1122.97,208.13,1122.66,208.45L1122.66,208.45z"/>
	<rect x="1108.05" y="309.83" class="st9" width="281.55" height="84.37"/>
	<text transform="matrix(1 0 0 1 1108.0457 324.8946)"><tspan x="0" y="0" class="st11 st17 st16">Fue la segunda misión no tripulada </tspan><tspan x="0" y="21.6" class="st11 st17 st16">del Programa Apolo. Tenía como </tspan><tspan x="0" y="43.2" class="st11 st17 st16">objetivo penetrar en la atmósfera </tspan><tspan x="0" y="64.8" class="st11 st17 st16">terrestre con éxito.</tspan></text>
	<rect x="1143.21" y="510.05" class="st9" width="340.49" height="49.79"/>
	<text transform="matrix(1 0 0 1 1143.2064 530.6371)"><tspan x="0" y="0" class="st11 st13 st14">Apolo 6</tspan><tspan x="0" y="24" class="st0 st1 st15">4 de abril de 1968</tspan></text>
	<g>
		<path class="st5" d="M1119.36,513.36c-5.74,0-10.39,4.65-10.39,10.39s4.65,10.39,10.39,10.39s10.39-4.65,10.39-10.39
			S1125.1,513.36,1119.36,513.36z M1123.32,524.49h-7.92c-0.41,0-0.75-0.34-0.75-0.75s0.34-0.75,0.75-0.75h7.92
			c0.41,0,0.75,0.34,0.75,0.75S1123.73,524.49,1123.32,524.49z"/>
	</g>
	<g>
		<rect x="1108.34" y="620.49" class="st9" width="305.49" height="127.57"/>
		<text transform="matrix(1 0 0 1 1108.337 635.5573)"><tspan x="0" y="0" class="st11 st17 st16">Última misión no tripulada. Un </tspan><tspan x="0" y="21.6" class="st11 st17 st16">fenómeno conocido como efecto pogo </tspan><tspan x="0" y="43.2" class="st11 st17 st16">dañó dos motores Rocketdyne J-2. Esto </tspan><tspan x="0" y="64.8" class="st11 st17 st16">provoco que durante la tercera etapa no </tspan><tspan x="0" y="86.4" class="st11 st17 st16">se pudiera alcanzar la velocidad </tspan><tspan x="0" y="108" class="st11 st17 st16">translunar correcta. </tspan></text>
	</g>
	<rect x="616.7" y="511.6" class="st9" width="340.49" height="49.79"/>
	<text transform="matrix(1 0 0 1 616.7029 532.1916)"><tspan x="0" y="0" class="st11 st13 st14">Apolo 7</tspan><tspan x="0" y="24" class="st0 st1 st15">11 de octubre de 1968</tspan></text>
	<path class="st3" d="M593.89,514.91c-2.75,0-5.4,1.09-7.34,3.04c-1.95,1.95-3.04,4.59-3.04,7.34c0,2.75,1.09,5.4,3.04,7.34
		c1.95,1.95,4.59,3.04,7.34,3.04c2.75,0,5.4-1.09,7.35-3.04c1.95-1.95,3.04-4.59,3.04-7.34c0-2.75-1.1-5.39-3.04-7.34
		C599.28,516.01,596.64,514.92,593.89,514.91L593.89,514.91z M598.11,523.07l-5.35,5.35c-0.15,0.15-0.36,0.24-0.57,0.24h-0.03
		c-0.23-0.01-0.44-0.11-0.59-0.28l-1.96-2.29c-0.28-0.34-0.23-0.84,0.1-1.13c0.33-0.29,0.83-0.25,1.13,0.07l1.39,1.62l4.73-4.73h0
		c0.32-0.32,0.83-0.32,1.15,0S598.43,522.75,598.11,523.07L598.11,523.07z"/>
	<g>
		<rect x="582.48" y="617.16" class="st9" width="288.39" height="105.97"/>
		<text transform="matrix(1 0 0 1 582.4769 632.2284)"><tspan x="0" y="0" class="st11 st17 st16">Primera misión oficial tripulada del </tspan><tspan x="0" y="21.6" class="st11 st17 st16">programa apolo. Se hicieron los </tspan><tspan x="0" y="43.2" class="st11 st17 st16">primeros usos de los trajes Apolo y fue </tspan><tspan x="0" y="64.8" class="st11 st17 st16">la primera transmisión de televisión </tspan><tspan x="0" y="86.4" class="st11 st17 st16">en directo.</tspan></text>
	</g>
	<rect x="617.35" y="802.87" class="st9" width="340.49" height="49.78"/>
	<text transform="matrix(1 0 0 1 617.3539 823.4551)"><tspan x="0" y="0" class="st11 st13 st14">Apolo 8</tspan><tspan x="0" y="24" class="st0 st1 st15">21 de diciembre de 1968</tspan></text>
	<path class="st3" d="M594.54,806.18c-2.75,0-5.4,1.09-7.34,3.04c-1.95,1.95-3.04,4.59-3.04,7.34c0,2.75,1.09,5.4,3.04,7.34
		c1.95,1.95,4.59,3.04,7.34,3.04c2.75,0,5.4-1.09,7.35-3.04c1.95-1.95,3.04-4.59,3.04-7.34c0-2.75-1.1-5.39-3.04-7.34
		C599.94,807.27,597.29,806.18,594.54,806.18L594.54,806.18z M598.76,814.33l-5.35,5.35c-0.15,0.15-0.36,0.24-0.57,0.24h-0.03
		c-0.23-0.01-0.44-0.11-0.59-0.28l-1.96-2.29c-0.28-0.34-0.23-0.84,0.1-1.13c0.33-0.29,0.83-0.25,1.13,0.07l1.39,1.62l4.73-4.73h0
		c0.32-0.32,0.83-0.32,1.15,0C599.08,813.5,599.08,814.01,598.76,814.33L598.76,814.33z"/>
	<g>
		<rect x="583.16" y="911.2" class="st9" width="289.09" height="105.97"/>
		<text transform="matrix(1 0 0 1 583.1605 926.2645)"><tspan x="0" y="0" class="st11 st17 st16">Primera misión tripulada en salir de la </tspan><tspan x="0" y="21.6" class="st11 st17 st16">órbita terrestre y orbitar la Luna. Los </tspan><tspan x="0" y="43.2" class="st11 st17 st16">tres astronautas se convirtieron en los </tspan><tspan x="0" y="64.8" class="st11 st17 st16">primeros en ver la Tierra de manera </tspan><tspan x="0" y="86.4" class="st11 st17 st16">completa.</tspan></text>
	</g>
	<rect x="1142.57" y="802.87" class="st9" width="340.49" height="49.79"/>
	<text transform="matrix(1 0 0 1 1142.568 823.4557)"><tspan x="0" y="0" class="st11 st13 st14">Apolo 9</tspan><tspan x="0" y="24" class="st0 st1 st15">3 de marzo de 1969</tspan></text>
	<path class="st3" d="M1118.72,806.18c-2.75,0-5.4,1.09-7.34,3.04c-1.95,1.95-3.04,4.59-3.04,7.34c0,2.75,1.09,5.4,3.04,7.34
		c1.95,1.95,4.59,3.04,7.34,3.04c2.75,0,5.4-1.09,7.34-3.04c1.95-1.95,3.04-4.59,3.04-7.34c0-2.75-1.1-5.4-3.04-7.34
		C1124.12,807.27,1121.48,806.18,1118.72,806.18L1118.72,806.18z M1122.95,814.33l-5.35,5.35c-0.15,0.15-0.36,0.24-0.57,0.24h-0.03
		c-0.23-0.01-0.44-0.11-0.59-0.28l-1.96-2.29c-0.28-0.34-0.23-0.84,0.1-1.13s0.83-0.25,1.13,0.07l1.39,1.62l4.73-4.73h0
		c0.32-0.32,0.83-0.32,1.15,0C1123.26,813.5,1123.26,814.01,1122.95,814.33L1122.95,814.33z"/>
	<g>
		<rect x="1107.12" y="912.69" class="st9" width="263.38" height="84.37"/>
		<text transform="matrix(1 0 0 1 1107.121 927.7526)"><tspan x="0" y="0" class="st11 st17 st16">Primera alunizaje en la Luna de la  </tspan><tspan x="0" y="21.6" class="st11 st17 st16">historia. Amstrong y Aldrin se  </tspan><tspan x="0" y="43.2" class="st11 st17 st16">convirtieron en los primeros </tspan><tspan x="0" y="64.8" class="st11 st17 st16">humanos en pisar la Luna.</tspan></text>
	</g>
	<rect x="1543.27" y="803.87" class="st9" width="340.49" height="49.79"/>
	<text transform="matrix(1 0 0 1 1543.2734 824.4554)"><tspan x="0" y="0" class="st11 st13 st14">Apolo 10</tspan><tspan x="0" y="24" class="st0 st1 st15">18 de mayo de 1969</tspan></text>
	<path class="st3" d="M1520.46,805.18c-2.75,0-5.4,1.09-7.34,3.04c-1.95,1.95-3.04,4.59-3.04,7.34c0,2.75,1.09,5.4,3.04,7.34
		c1.95,1.95,4.59,3.04,7.34,3.04c2.75,0,5.4-1.09,7.34-3.04c1.95-1.95,3.04-4.59,3.04-7.34c0-2.75-1.1-5.4-3.04-7.34
		C1525.85,806.27,1523.21,805.18,1520.46,805.18L1520.46,805.18z M1524.68,813.33l-5.35,5.35c-0.15,0.15-0.36,0.24-0.57,0.24h-0.03
		c-0.23-0.01-0.44-0.11-0.59-0.28l-1.96-2.29c-0.28-0.34-0.23-0.84,0.1-1.13c0.33-0.29,0.83-0.25,1.13,0.07l1.39,1.62l4.73-4.73h0
		c0.32-0.32,0.83-0.32,1.15,0C1525,812.5,1525,813.01,1524.68,813.33L1524.68,813.33z"/>
	<g>
		<rect x="1510.9" y="909.7" class="st9" width="245.22" height="105.97"/>
		<text transform="matrix(1 0 0 1 1510.8964 924.7615)"><tspan x="0" y="0" class="st11 st17 st16">Ensayo general para el alunizaje. </tspan><tspan x="0" y="21.6" class="st11 st17 st16">Llegaron a descender a 15,6 km </tspan><tspan x="0" y="43.2" class="st11 st17 st16">de la superficie lunar, se toman </tspan><tspan x="0" y="64.8" class="st11 st17 st16">fotografías de posibles lugares </tspan><tspan x="0" y="86.4" class="st11 st17 st16">de alunizaje.</tspan></text>
	</g>
	<g>
		<polygon class="st10" points="171.77,292.01 188.8,287.18 227.24,287.18 227.24,265.81 188.8,265.81 171.77,260.98 170.57,260.98 
			170.57,292.01 		"/>
		<polygon class="st10" points="231.09,287.18 253.88,281.54 266.18,281.54 271.82,278.01 288.26,278.01 288.26,274.98 
			271.82,274.98 266.18,271.46 253.88,271.46 231.09,265.81 227.24,265.81 227.24,287.18 		"/>
		<polygon class="st10" points="86.12,304.7 102.57,292.01 102.57,292.01 170.57,292.01 170.57,260.98 102.57,260.98 86.12,248.29 
			80.14,248.29 80.14,262.39 70.79,257.08 65.75,257.08 65.75,295.91 70.79,295.91 80.14,290.6 80.14,304.7 		"/>
	</g>
</g>
</svg>
